<?xml version="1.0" encoding="UTF-8" standalone="no"?>
<!-- Created with Inkscape (http://www.inkscape.org/) -->

<svg
   xmlns:dc="http://purl.org/dc/elements/1.1/"
   xmlns:cc="http://creativecommons.org/ns#"
   xmlns:rdf="http://www.w3.org/1999/02/22-rdf-syntax-ns#"
   xmlns:svg="http://www.w3.org/2000/svg"
   xmlns="http://www.w3.org/2000/svg"
   xmlns:sodipodi="http://sodipodi.sourceforge.net/DTD/sodipodi-0.dtd"
   xmlns:inkscape="http://www.inkscape.org/namespaces/inkscape"
   width="199.56239mm"
   height="122.42973mm"
   viewBox="0 0 707.11084 433.80611"
   id="svg23071"
   version="1.1"
   inkscape:version="0.91 r13725"
   inkscape:export-filename="C:\Users\lamw\Documents\SpiderOak Hive\Work\Projects\Climate-and-development-data\Results\Figures\ghg_sectors.png"
   inkscape:export-xdpi="300"
   inkscape:export-ydpi="300"
   sodipodi:docname="ghgs_sectors.svg">
  <defs
     id="defs23073">
    <clipPath
       id="clipPath23653"
       clipPathUnits="userSpaceOnUse">
      <path
         inkscape:connector-curvature="0"
         id="path23655"
         d="m 33.7,19.51 536.82,0 0,335.01 -536.82,0 0,-335.01 z" />
    </clipPath>
  </defs>
  <sodipodi:namedview
     id="base"
     pagecolor="#ffffff"
     bordercolor="#666666"
     borderopacity="1.0"
     inkscape:pageopacity="0.0"
     inkscape:pageshadow="2"
     inkscape:zoom="1.979899"
     inkscape:cx="235.20142"
     inkscape:cy="237.99437"
     inkscape:document-units="px"
     inkscape:current-layer="layer4"
     showgrid="false"
     fit-margin-top="0"
     fit-margin-left="0"
     fit-margin-right="0"
     fit-margin-bottom="0"
     inkscape:window-width="1920"
     inkscape:window-height="1027"
     inkscape:window-x="-8"
     inkscape:window-y="-8"
     inkscape:window-maximized="1" />
  <metadata
     id="metadata23076">
    <rdf:RDF>
      <cc:Work
         rdf:about="">
        <dc:format>image/svg+xml</dc:format>
        <dc:type
           rdf:resource="http://purl.org/dc/dcmitype/StillImage" />
        <dc:title></dc:title>
      </cc:Work>
    </rdf:RDF>
  </metadata>
  <g
     inkscape:label="Layer 1"
     inkscape:groupmode="layer"
     id="layer1"
     transform="translate(-30.36195,-164.18956)">
    <path
       d="m 65.779038,583.62081 671.025002,0 0,-418.7625 -671.025002,0 0,418.7625 z"
       style="fill:#ffffff;fill-opacity:1;fill-rule:nonzero;stroke:none"
       id="path23657"
       inkscape:connector-curvature="0" />
    <path
       d="m 65.779038,497.48331 671.025002,0"
       style="fill:none;stroke:#ebebeb;stroke-width:0.66249996;stroke-linecap:butt;stroke-linejoin:round;stroke-miterlimit:10;stroke-dasharray:none;stroke-opacity:1"
       id="path23659"
       inkscape:connector-curvature="0" />
    <path
       d="m 65.779038,363.30831 671.025002,0"
       style="fill:none;stroke:#ebebeb;stroke-width:0.66249996;stroke-linecap:butt;stroke-linejoin:round;stroke-miterlimit:10;stroke-dasharray:none;stroke-opacity:1"
       id="path23661"
       inkscape:connector-curvature="0" />
    <path
       d="m 65.779038,229.12081 671.025002,0"
       style="fill:none;stroke:#ebebeb;stroke-width:0.66249996;stroke-linecap:butt;stroke-linejoin:round;stroke-miterlimit:10;stroke-dasharray:none;stroke-opacity:1"
       id="path23663"
       inkscape:connector-curvature="0" />
    <path
       d="m 161.16654,583.62081 0,-418.7625"
       style="fill:none;stroke:#ebebeb;stroke-width:0.66249996;stroke-linecap:butt;stroke-linejoin:round;stroke-miterlimit:10;stroke-dasharray:none;stroke-opacity:1"
       id="path23665"
       inkscape:connector-curvature="0" />
    <path
       d="m 290.96654,583.62081 0,-418.7625"
       style="fill:none;stroke:#ebebeb;stroke-width:0.66249996;stroke-linecap:butt;stroke-linejoin:round;stroke-miterlimit:10;stroke-dasharray:none;stroke-opacity:1"
       id="path23667"
       inkscape:connector-curvature="0" />
    <path
       d="m 420.75404,583.62081 0,-418.7625"
       style="fill:none;stroke:#ebebeb;stroke-width:0.66249996;stroke-linecap:butt;stroke-linejoin:round;stroke-miterlimit:10;stroke-dasharray:none;stroke-opacity:1"
       id="path23669"
       inkscape:connector-curvature="0" />
    <path
       d="m 550.55404,583.62081 0,-418.7625"
       style="fill:none;stroke:#ebebeb;stroke-width:0.66249996;stroke-linecap:butt;stroke-linejoin:round;stroke-miterlimit:10;stroke-dasharray:none;stroke-opacity:1"
       id="path23671"
       inkscape:connector-curvature="0" />
    <path
       d="m 680.34154,583.62081 0,-418.7625"
       style="fill:none;stroke:#ebebeb;stroke-width:0.66249996;stroke-linecap:butt;stroke-linejoin:round;stroke-miterlimit:10;stroke-dasharray:none;stroke-opacity:1"
       id="path23673"
       inkscape:connector-curvature="0" />
    <path
       d="m 65.779038,564.58331 671.025002,0"
       style="fill:none;stroke:#ebebeb;stroke-width:1.3375001;stroke-linecap:butt;stroke-linejoin:round;stroke-miterlimit:10;stroke-dasharray:none;stroke-opacity:1"
       id="path23675"
       inkscape:connector-curvature="0" />
    <path
       d="m 65.779038,430.39581 671.025002,0"
       style="fill:none;stroke:#ebebeb;stroke-width:1.3375001;stroke-linecap:butt;stroke-linejoin:round;stroke-miterlimit:10;stroke-dasharray:none;stroke-opacity:1"
       id="path23677"
       inkscape:connector-curvature="0" />
    <path
       d="m 65.779038,296.20831 671.025002,0"
       style="fill:none;stroke:#ebebeb;stroke-width:1.3375001;stroke-linecap:butt;stroke-linejoin:round;stroke-miterlimit:10;stroke-dasharray:none;stroke-opacity:1"
       id="path23679"
       inkscape:connector-curvature="0" />
    <path
       d="m 96.279038,583.62081 0,-418.7625"
       style="fill:none;stroke:#ebebeb;stroke-width:1.3375001;stroke-linecap:butt;stroke-linejoin:round;stroke-miterlimit:10;stroke-dasharray:none;stroke-opacity:1"
       id="path23681"
       inkscape:connector-curvature="0" />
    <path
       d="m 226.06654,583.62081 0,-418.7625"
       style="fill:none;stroke:#ebebeb;stroke-width:1.3375001;stroke-linecap:butt;stroke-linejoin:round;stroke-miterlimit:10;stroke-dasharray:none;stroke-opacity:1"
       id="path23683"
       inkscape:connector-curvature="0" />
    <path
       d="m 355.86654,583.62081 0,-418.7625"
       style="fill:none;stroke:#ebebeb;stroke-width:1.3375001;stroke-linecap:butt;stroke-linejoin:round;stroke-miterlimit:10;stroke-dasharray:none;stroke-opacity:1"
       id="path23685"
       inkscape:connector-curvature="0" />
    <path
       d="m 485.65404,583.62081 0,-418.7625"
       style="fill:none;stroke:#ebebeb;stroke-width:1.3375001;stroke-linecap:butt;stroke-linejoin:round;stroke-miterlimit:10;stroke-dasharray:none;stroke-opacity:1"
       id="path23687"
       inkscape:connector-curvature="0" />
    <path
       d="m 615.45404,583.62081 0,-418.7625"
       style="fill:none;stroke:#ebebeb;stroke-width:1.3375001;stroke-linecap:butt;stroke-linejoin:round;stroke-miterlimit:10;stroke-dasharray:none;stroke-opacity:1"
       id="path23689"
       inkscape:connector-curvature="0" />
    <path
       d="m 96.279038,363.63331 12.975002,-0.5875 12.975,-6.275 12.9875,-9.3 12.975,0.65 12.975,2.0375 12.9875,-9.2 12.975,-3.2875 12.9875,-5.625 12.975,-2.8125 12.975,1.7875 12.9875,5.2875 12.975,1.3875 12.975,-1.85 12.9875,-5.2625 12.975,-2.4 12.975,-3.6625 12.9875,-5.4125 12.975,-7.65 12.975,-4.3 12.9875,-0.375 12.975,-0.925 12.975,-0.0875 12.9875,-0.65 12.975,-2.25 12.975,-4.8625 12.9875,-3.0125 12.975,-13.4 12.975,13.825 12.9875,-1.175 12.975,-8.85 12.975,1.05 12.9875,-7.775 12.975,-11.3125 12.975,-10.05 12.9875,-6.2125 12.975,-10.0125 12.9875,-5.125 12.975,-3.5125 12.975,-8.35 12.9875,-10.85 12.975,-7.9 12.975,-10.2875 12.9875,-3.2625 12.975,-5.2625 12.975,-1.6125 12.9875,5.725 12.975,-6.75 0,128.3125 -12.975,5.075 -12.9875,-5.9875 -12.975,2.4875 -12.975,4.425 -12.9875,1.55 -12.975,8.2375 -12.975,3.2 -12.9875,3.95 -12.975,10.0125 -12.975,3.5125 -12.9875,1.4125 -12.975,6.15 -12.9875,1.95 -12.975,6.925 -12.975,5.7625 -12.9875,6.2625 -12.975,-2.6375 -12.975,5.55 -12.9875,1.1875 -12.975,-14.1375 -12.975,12.7875 -12.9875,0.1375 -12.975,3.5 -12.975,0.975 -12.9875,0.4125 -12.975,-1.025 -12.975,0.15 -12.9875,-2.7875 -12.975,1.8125 -12.975,4.35 -12.9875,3.7625 -12.975,2.4375 -12.975,1.125 -12.9875,4.475 -12.975,1.375 -12.975,-1.475 -12.9875,-1.2125 -12.975,-0.6375 -12.975,2.2625 -12.9875,3.05 -12.975,2.2875 -12.9875,3.575 -12.975,-0.3125 -12.975,-1.075 -12.9875,3.6875 -12.975,2.7125 -12.975002,-1.125 0,-48.6875 z"
       style="fill:#f8766d;fill-opacity:1;fill-rule:nonzero;stroke:#f8766d;stroke-width:1.3375001;stroke-linecap:round;stroke-linejoin:round;stroke-miterlimit:10;stroke-dasharray:none;stroke-opacity:1"
       id="path23691"
       inkscape:connector-curvature="0" />
    <path
       d="m 96.279038,412.32081 12.975002,1.125 12.975,-2.7125 12.9875,-3.6875 12.975,1.075 12.975,0.3125 12.9875,-3.575 12.975,-2.2875 12.9875,-3.05 12.975,-2.2625 12.975,0.6375 12.9875,1.2125 12.975,1.475 12.975,-1.375 12.9875,-4.475 12.975,-1.125 12.975,-2.4375 12.9875,-3.7625 12.975,-4.35 12.975,-1.8125 12.9875,2.7875 12.975,-0.15 12.975,1.025 12.9875,-0.4125 12.975,-0.975 12.975,-3.5 12.9875,-0.1375 12.975,-12.7875 12.975,14.1375 12.9875,-1.1875 12.975,-5.55 12.975,2.6375 12.9875,-6.2625 12.975,-5.7625 12.975,-6.925 12.9875,-1.95 12.975,-6.15 12.9875,-1.4125 12.975,-3.5125 12.975,-10.0125 12.9875,-3.95 12.975,-3.2 12.975,-8.2375 12.9875,-1.55 12.975,-4.425 12.975,-2.4875 12.9875,5.9875 12.975,-5.075 0,53.3375 -12.975,4.525 -12.9875,-6.125 -12.975,1.1 -12.975,3.45 -12.9875,0.625 -12.975,7.375 -12.975,2.3625 -12.9875,2.0125 -12.975,10.9 -12.975,3.475 -12.9875,0 -12.975,5.175 -12.9875,1.0625 -12.975,5.075 -12.975,4.85 -12.9875,5.35 -12.975,-2.8375 -12.975,4.4 -12.9875,0.1125 -12.975,-14.9625 -12.975,12.2625 -12.9875,-1.2625 -12.975,2.6 -12.975,0.3125 -12.9875,0.1375 -12.975,-1.7625 -12.975,-0.15 -12.9875,-3.675 -12.975,0.9625 -12.975,3 -12.9875,2.8125 -12.975,1.4625 -12.975,0.6 -12.9875,3.775 -12.975,1.1375 -12.975,-1.25 -12.9875,-1.1375 -12.975,-0.3 -12.975,1.825 -12.9875,2.025 -12.975,1.45 -12.9875,2.675 -12.975,-0.9 -12.975,-0.8625 -12.9875,2.475 -12.975,1.55 -12.975002,-1.675 0,-19.2375 z"
       style="fill:#a3a500;fill-opacity:1;fill-rule:nonzero;stroke:#a3a500;stroke-width:1.3375001;stroke-linecap:round;stroke-linejoin:round;stroke-miterlimit:10;stroke-dasharray:none;stroke-opacity:1"
       id="path23693"
       inkscape:connector-curvature="0" />
    <path
       d="m 96.279038,431.55831 12.975002,1.675 12.975,-1.55 12.9875,-2.475 12.975,0.8625 12.975,0.9 12.9875,-2.675 12.975,-1.45 12.9875,-2.025 12.975,-1.825 12.975,0.3 12.9875,1.1375 12.975,1.25 12.975,-1.1375 12.9875,-3.775 12.975,-0.6 12.975,-1.4625 12.9875,-2.8125 12.975,-3 12.975,-0.9625 12.9875,3.675 12.975,0.15 12.975,1.7625 12.9875,-0.1375 12.975,-0.3125 12.975,-2.6 12.9875,1.2625 12.975,-12.2625 12.975,14.9625 12.9875,-0.1125 12.975,-4.4 12.975,2.8375 12.9875,-5.35 12.975,-4.85 12.975,-5.075 12.9875,-1.0625 12.975,-5.175 12.9875,0 12.975,-3.475 12.975,-10.9 12.9875,-2.0125 12.975,-2.3625 12.975,-7.375 12.9875,-0.625 12.975,-3.45 12.975,-1.1 12.9875,6.125 12.975,-4.525 0,21.4125 -12.975,4.25 -12.9875,-6.1875 -12.975,1.0625 -12.975,3.6375 -12.9875,-0.025 -12.975,7.5375 -12.975,2.625 -12.9875,1.725 -12.975,11.1375 -12.975,3 -12.9875,0.05 -12.975,5.425 -12.9875,0.9875 -12.975,4.75 -12.975,4.225 -12.9875,5.4125 -12.975,-3 -12.975,4.3 -12.9875,-0.3875 -12.975,-13.8 -12.975,12.425 -12.9875,-1.6875 -12.975,2 -12.975,0.95 -12.9875,-0.3125 -12.975,-0.975 -12.975,-0.2875 -12.9875,-3.0375 -12.975,1.2625 -12.975,2.525 -12.9875,2.4875 -12.975,1.3375 -12.975,0.0125 -12.9875,2.85 -12.975,1.225 -12.975,-1.275 -12.9875,-0.7 -12.975,0.5625 -12.975,1.8375 -12.9875,1.5 -12.975,1.3375 -12.9875,1.8625 -12.975,-1.2 -12.975,-0.2875 -12.9875,2.3 -12.975,0.9375 -12.975002,-1.675 0,-18.1 z"
       style="fill:#00bf7d;fill-opacity:1;fill-rule:nonzero;stroke:#00bf7d;stroke-width:1.3375001;stroke-linecap:round;stroke-linejoin:round;stroke-miterlimit:10;stroke-dasharray:none;stroke-opacity:1"
       id="path23695"
       inkscape:connector-curvature="0" />
    <path
       d="m 96.279038,449.65831 12.975002,1.675 12.975,-0.9375 12.9875,-2.3 12.975,0.2875 12.975,1.2 12.9875,-1.8625 12.975,-1.3375 12.9875,-1.5 12.975,-1.8375 12.975,-0.5625 12.9875,0.7 12.975,1.275 12.975,-1.225 12.9875,-2.85 12.975,-0.0125 12.975,-1.3375 12.9875,-2.4875 12.975,-2.525 12.975,-1.2625 12.9875,3.0375 12.975,0.2875 12.975,0.975 12.9875,0.3125 12.975,-0.95 12.975,-2 12.9875,1.6875 12.975,-12.425 12.975,13.8 12.9875,0.3875 12.975,-4.3 12.975,3 12.9875,-5.4125 12.975,-4.225 12.975,-4.75 12.9875,-0.9875 12.975,-5.425 12.9875,-0.05 12.975,-3 12.975,-11.1375 12.9875,-1.725 12.975,-2.625 12.975,-7.5375 12.9875,0.025 12.975,-3.6375 12.975,-1.0625 12.9875,6.1875 12.975,-4.25 0,94.075 -12.975,2.6625 -12.9875,-7.3375 -12.975,0.8625 -12.975,1.8375 -12.9875,-1.475 -12.975,6.45 -12.975,-1.025 -12.9875,-3.2125 -12.975,11.1375 -12.975,1.8875 -12.9875,-3.8875 -12.975,1.6875 -12.9875,-2.075 -12.975,-0.075 -12.975,1.4625 -12.9875,4.2 -12.975,-3.2125 -12.975,2.2625 -12.9875,-0.2375 -12.975,-13.525 -12.975,11.5375 -12.9875,-1.0875 -12.975,-0.35 -12.975,-0.0875 -12.9875,-0.2375 -12.975,-0.125 -12.975,-0.025 -12.9875,-0.3125 -12.975,0.9875 -12.975,0.9125 -12.9875,1.125 -12.975,1.175 -12.975,0.4375 -12.9875,1.1875 -12.975,1.475 -12.975,0.3125 -12.9875,0.425 -12.975,1.325 -12.975,-0.125 -12.9875,-0.5125 -12.975,-0.225 -12.9875,-0.1 -12.975,0.1875 -12.975,-0.5375 -12.9875,0.075 -12.975,-0.4625 -12.975002,-0.3 0,-46.4375 z"
       style="fill:#00b0f6;fill-opacity:1;fill-rule:nonzero;stroke:#00b0f6;stroke-width:1.3375001;stroke-linecap:round;stroke-linejoin:round;stroke-miterlimit:10;stroke-dasharray:none;stroke-opacity:1"
       id="path23697"
       inkscape:connector-curvature="0" />
    <path
       d="m 96.279038,496.09581 12.975002,0.3 12.975,0.4625 12.9875,-0.075 12.975,0.5375 12.975,-0.1875 12.9875,0.1 12.975,0.225 12.9875,0.5125 12.975,0.125 12.975,-1.325 12.9875,-0.425 12.975,-0.3125 12.975,-1.475 12.9875,-1.1875 12.975,-0.4375 12.975,-1.175 12.9875,-1.125 12.975,-0.9125 12.975,-0.9875 12.9875,0.3125 12.975,0.025 12.975,0.125 12.9875,0.2375 12.975,0.0875 12.975,0.35 12.9875,1.0875 12.975,-11.5375 12.975,13.525 12.9875,0.2375 12.975,-2.2625 12.975,3.2125 12.9875,-4.2 12.975,-1.4625 12.975,0.075 12.9875,2.075 12.975,-1.6875 12.9875,3.8875 12.975,-1.8875 12.975,-11.1375 12.9875,3.2125 12.975,1.025 12.975,-6.45 12.9875,1.475 12.975,-1.8375 12.975,-0.8625 12.9875,7.3375 12.975,-2.6625 0,83.55 -12.975,0 -12.9875,0 -12.975,0 -12.975,0 -12.9875,0 -12.975,0 -12.975,0 -12.9875,0 -12.975,0 -12.975,0 -12.9875,0 -12.975,0 -12.9875,0 -12.975,0 -12.975,0 -12.9875,0 -12.975,0 -12.975,0 -12.9875,0 -12.975,0 -12.975,0 -12.9875,0 -12.975,0 -12.975,0 -12.9875,0 -12.975,0 -12.975,0 -12.9875,0 -12.975,0 -12.975,0 -12.9875,0 -12.975,0 -12.975,0 -12.9875,0 -12.975,0 -12.975,0 -12.9875,0 -12.975,0 -12.975,0 -12.9875,0 -12.975,0 -12.9875,0 -12.975,0 -12.975,0 -12.9875,0 -12.975,0 -12.975002,0 0,-68.4875 z"
       style="fill:#e76bf3;fill-opacity:1;fill-rule:nonzero;stroke:#e76bf3;stroke-width:1.3375001;stroke-linecap:round;stroke-linejoin:round;stroke-miterlimit:10;stroke-dasharray:none;stroke-opacity:1"
       id="path23699"
       inkscape:connector-curvature="0" />
    <path
       d="m 96.279038,583.62081 0,-418.7625"
       style="fill:none;stroke:#000000;stroke-width:1.3375001;stroke-linecap:butt;stroke-linejoin:round;stroke-miterlimit:10;stroke-dasharray:5.3375, 5.3375;stroke-dashoffset:0;stroke-opacity:0.30199998"
       id="path23821"
       inkscape:connector-curvature="0" />
    <path
       d="m 226.06654,583.62081 0,-418.7625"
       style="fill:none;stroke:#000000;stroke-width:1.3375001;stroke-linecap:butt;stroke-linejoin:round;stroke-miterlimit:10;stroke-dasharray:5.3375, 5.3375;stroke-dashoffset:0;stroke-opacity:0.30199998"
       id="path23823"
       inkscape:connector-curvature="0" />
    <path
       d="m 355.86654,583.62081 0,-418.7625"
       style="fill:none;stroke:#000000;stroke-width:1.3375001;stroke-linecap:butt;stroke-linejoin:round;stroke-miterlimit:10;stroke-dasharray:5.3375, 5.3375;stroke-dashoffset:0;stroke-opacity:0.30199998"
       id="path23825"
       inkscape:connector-curvature="0" />
    <path
       d="m 485.65404,583.62081 0,-418.7625"
       style="fill:none;stroke:#000000;stroke-width:1.3375001;stroke-linecap:butt;stroke-linejoin:round;stroke-miterlimit:10;stroke-dasharray:5.3375, 5.3375;stroke-dashoffset:0;stroke-opacity:0.30199998"
       id="path23827"
       inkscape:connector-curvature="0" />
    <path
       d="m 615.45404,583.62081 0,-418.7625"
       style="fill:none;stroke:#000000;stroke-width:1.3375001;stroke-linecap:butt;stroke-linejoin:round;stroke-miterlimit:10;stroke-dasharray:5.3375, 5.3375;stroke-dashoffset:0;stroke-opacity:0.30199998"
       id="path23829"
       inkscape:connector-curvature="0" />
    <path
       d="m 706.30404,583.62081 0,-418.7625"
       style="fill:none;stroke:#000000;stroke-width:1.3375001;stroke-linecap:butt;stroke-linejoin:round;stroke-miterlimit:10;stroke-dasharray:5.3375, 5.3375;stroke-dashoffset:0;stroke-opacity:0.30199998"
       id="path23831"
       inkscape:connector-curvature="0" />
    <path
       d="m 65.779038,583.62081 671.025002,0 0,-418.7625 -671.025002,0 0,418.7625 z"
       style="fill:none;stroke:#333333;stroke-width:1.3375001;stroke-linecap:round;stroke-linejoin:round;stroke-miterlimit:10;stroke-dasharray:none;stroke-opacity:1"
       id="path23833"
       inkscape:connector-curvature="0" />
    <path
       inkscape:connector-curvature="0"
       id="path23883"
       style="fill:none;stroke:#333333;stroke-width:1.3375001;stroke-linecap:butt;stroke-linejoin:round;stroke-miterlimit:10;stroke-dasharray:none;stroke-opacity:1"
       d="m 62.354038,564.58331 3.425,0" />
    <path
       inkscape:connector-curvature="0"
       id="path23885"
       style="fill:none;stroke:#333333;stroke-width:1.3375001;stroke-linecap:butt;stroke-linejoin:round;stroke-miterlimit:10;stroke-dasharray:none;stroke-opacity:1"
       d="m 62.354038,430.39581 3.425,0" />
    <path
       inkscape:connector-curvature="0"
       id="path23887"
       style="fill:none;stroke:#333333;stroke-width:1.3375001;stroke-linecap:butt;stroke-linejoin:round;stroke-miterlimit:10;stroke-dasharray:none;stroke-opacity:1"
       d="m 62.354038,284.08648 3.425,0" />
    <path
       inkscape:connector-curvature="0"
       id="path23909"
       style="fill:none;stroke:#333333;stroke-width:1.3375001;stroke-linecap:butt;stroke-linejoin:round;stroke-miterlimit:10;stroke-dasharray:none;stroke-opacity:1"
       d="m 96.279038,587.04581 0,-3.425" />
    <path
       inkscape:connector-curvature="0"
       id="path23911"
       style="fill:none;stroke:#333333;stroke-width:1.3375001;stroke-linecap:butt;stroke-linejoin:round;stroke-miterlimit:10;stroke-dasharray:none;stroke-opacity:1"
       d="m 226.06654,587.04581 0,-3.425" />
    <path
       inkscape:connector-curvature="0"
       id="path23913"
       style="fill:none;stroke:#333333;stroke-width:1.3375001;stroke-linecap:butt;stroke-linejoin:round;stroke-miterlimit:10;stroke-dasharray:none;stroke-opacity:1"
       d="m 355.86654,587.04581 0,-3.425" />
    <path
       inkscape:connector-curvature="0"
       id="path23915"
       style="fill:none;stroke:#333333;stroke-width:1.3375001;stroke-linecap:butt;stroke-linejoin:round;stroke-miterlimit:10;stroke-dasharray:none;stroke-opacity:1"
       d="m 485.65404,587.04581 0,-3.425" />
    <path
       inkscape:connector-curvature="0"
       id="path23917"
       style="fill:none;stroke:#333333;stroke-width:1.3375001;stroke-linecap:butt;stroke-linejoin:round;stroke-miterlimit:10;stroke-dasharray:none;stroke-opacity:1"
       d="m 615.45404,587.04581 0,-3.425" />
    <path
       inkscape:connector-curvature="0"
       id="path23987"
       style="fill:#ffffff;fill-opacity:1;fill-rule:nonzero;stroke:none"
       d="m 111.94154,204.08648 21.6,0 0,-21.6 -21.6,0 0,21.6 z" />
    <path
       inkscape:connector-curvature="0"
       id="path23993"
       style="fill:#f8766d;fill-opacity:1;fill-rule:nonzero;stroke:#f8766d;stroke-width:1.3375001;stroke-linecap:round;stroke-linejoin:miter;stroke-miterlimit:10;stroke-dasharray:none;stroke-opacity:1"
       d="m 112.81654,203.19898 19.825,0 0,-19.825 -19.825,0 0,19.825 z" />
    <path
       inkscape:connector-curvature="0"
       id="path24007"
       style="fill:#ffffff;fill-opacity:1;fill-rule:nonzero;stroke:none"
       d="m 111.94154,225.68648 21.6,0 0,-21.6 -21.6,0 0,21.6 z" />
    <path
       inkscape:connector-curvature="0"
       id="path24013"
       style="fill:#a3a500;fill-opacity:1;fill-rule:nonzero;stroke:#a3a500;stroke-width:1.3375001;stroke-linecap:round;stroke-linejoin:miter;stroke-miterlimit:10;stroke-dasharray:none;stroke-opacity:1"
       d="m 112.81654,224.79898 19.825,0 0,-19.825 -19.825,0 0,19.825 z" />
    <path
       inkscape:connector-curvature="0"
       id="path24027"
       style="fill:#ffffff;fill-opacity:1;fill-rule:nonzero;stroke:none"
       d="m 111.94154,247.28648 21.6,0 0,-21.6 -21.6,0 0,21.6 z" />
    <path
       inkscape:connector-curvature="0"
       id="path24033"
       style="fill:#00bf7d;fill-opacity:1;fill-rule:nonzero;stroke:#00bf7d;stroke-width:1.3375001;stroke-linecap:round;stroke-linejoin:miter;stroke-miterlimit:10;stroke-dasharray:none;stroke-opacity:1"
       d="m 112.81654,246.39898 19.825,0 0,-19.825 -19.825,0 0,19.825 z" />
    <path
       inkscape:connector-curvature="0"
       id="path24047"
       style="fill:#ffffff;fill-opacity:1;fill-rule:nonzero;stroke:none"
       d="m 111.94154,268.88648 21.6,0 0,-21.6 -21.6,0 0,21.6 z" />
    <path
       inkscape:connector-curvature="0"
       id="path24053"
       style="fill:#00b0f6;fill-opacity:1;fill-rule:nonzero;stroke:#00b0f6;stroke-width:1.3375001;stroke-linecap:round;stroke-linejoin:miter;stroke-miterlimit:10;stroke-dasharray:none;stroke-opacity:1"
       d="m 112.81654,267.99898 19.825,0 0,-19.825 -19.825,0 0,19.825 z" />
    <path
       inkscape:connector-curvature="0"
       id="path24067"
       style="fill:#ffffff;fill-opacity:1;fill-rule:nonzero;stroke:none"
       d="m 111.94154,290.48648 21.6,0 0,-21.6 -21.6,0 0,21.6 z" />
    <path
       inkscape:connector-curvature="0"
       id="path24073"
       style="fill:#e76bf3;fill-opacity:1;fill-rule:nonzero;stroke:#e76bf3;stroke-width:1.3375001;stroke-linecap:round;stroke-linejoin:miter;stroke-miterlimit:10;stroke-dasharray:none;stroke-opacity:1"
       d="m 112.81654,289.59898 19.825,0 0,-19.825 -19.825,0 0,19.825 z" />
  </g>
  <g
     inkscape:groupmode="layer"
     id="layer4"
     inkscape:label="text"
     transform="translate(-30.36195,-164.18956)">
    <text
       style="font-variant:normal;font-weight:normal;font-size:13.75px;font-family:Helvetica;-inkscape-font-specification:Helvetica;writing-mode:lr-tb;fill:#3f3f3f;fill-opacity:1;fill-rule:nonzero;stroke:none;"
       id="text23701"
       x="82.516541"
       y="532.73022">
      <tspan
         x="82.516541 90.161537 97.806541"
         y="532.73022"
         sodipodi:role="line"
         id="tspan23703">34%</tspan>
    </text>
    <text
       style="font-variant:normal;font-weight:normal;font-size:13.75px;font-family:Helvetica;-inkscape-font-specification:Helvetica;writing-mode:lr-tb;fill:#3f3f3f;fill-opacity:1;fill-rule:nonzero;stroke:none;"
       id="text23705"
       x="86.341537"
       y="445.27216">
      <tspan
         x="86.341537 93.986542"
         y="445.27216"
         sodipodi:role="line"
         id="tspan23707">9%</tspan>
    </text>
    <text
       style="font-variant:normal;font-weight:normal;font-size:13.75px;font-family:Helvetica;-inkscape-font-specification:Helvetica;writing-mode:lr-tb;fill:#3f3f3f;fill-opacity:1;fill-rule:nonzero;stroke:none;"
       id="text23709"
       x="82.516541"
       y="392.50955">
      <tspan
         x="82.516541 90.161537 97.806541"
         y="392.50955"
         sodipodi:role="line"
         id="tspan23711">24%</tspan>
    </text>
    <text
       style="font-variant:normal;font-weight:normal;font-size:13.75px;font-family:Helvetica;-inkscape-font-specification:Helvetica;writing-mode:lr-tb;fill:#3f3f3f;fill-opacity:1;fill-rule:nonzero;stroke:none;"
       id="text23713"
       x="82.516541"
       y="473.59714">
      <tspan
         x="82.516541 90.161537 97.806541"
         y="473.59714"
         sodipodi:role="line"
         id="tspan23715">23%</tspan>
    </text>
    <text
       style="font-variant:normal;font-weight:normal;font-size:13.75px;font-family:Helvetica;-inkscape-font-specification:Helvetica;writing-mode:lr-tb;fill:#3f3f3f;fill-opacity:1;fill-rule:nonzero;stroke:none;"
       id="text23717"
       x="82.516541"
       y="424.67889">
      <tspan
         x="82.516541 90.161537 97.806541"
         y="424.67889"
         sodipodi:role="line"
         id="tspan23719">10%</tspan>
    </text>
    <text
       style="font-variant:normal;font-weight:normal;font-size:13.75px;font-family:Helvetica;-inkscape-font-specification:Helvetica;writing-mode:lr-tb;fill:#3f3f3f;fill-opacity:1;fill-rule:nonzero;stroke:none;"
       id="text23721"
       x="212.31654"
       y="532.73022">
      <tspan
         x="212.31654 219.96153 227.60654"
         y="532.73022"
         sodipodi:role="line"
         id="tspan23723">29%</tspan>
    </text>
    <text
       style="font-variant:normal;font-weight:normal;font-size:13.75px;font-family:Helvetica;-inkscape-font-specification:Helvetica;writing-mode:lr-tb;fill:#3f3f3f;fill-opacity:1;fill-rule:nonzero;stroke:none;"
       id="text23725"
       x="216.12904"
       y="436.95566">
      <tspan
         x="216.12904 223.77403"
         y="436.95566"
         sodipodi:role="line"
         id="tspan23727">8%</tspan>
    </text>
    <text
       style="font-variant:normal;font-weight:normal;font-size:13.75px;font-family:Helvetica;-inkscape-font-specification:Helvetica;writing-mode:lr-tb;fill:#3f3f3f;fill-opacity:1;fill-rule:nonzero;stroke:none;"
       id="text23729"
       x="212.31654"
       y="374.04398">
      <tspan
         x="212.31654 219.96153 227.60654"
         y="374.04398"
         sodipodi:role="line"
         id="tspan23731">29%</tspan>
    </text>
    <text
       style="font-variant:normal;font-weight:normal;font-size:13.75px;font-family:Helvetica;-inkscape-font-specification:Helvetica;writing-mode:lr-tb;fill:#3f3f3f;fill-opacity:1;fill-rule:nonzero;stroke:none;"
       id="text23733"
       x="212.31654"
       y="470.55295">
      <tspan
         x="212.31654 219.96153 227.60654"
         y="470.55295"
         sodipodi:role="line"
         id="tspan23735">23%</tspan>
    </text>
    <text
       style="font-variant:normal;font-weight:normal;font-size:13.75px;font-family:Helvetica;-inkscape-font-specification:Helvetica;writing-mode:lr-tb;fill:#3f3f3f;fill-opacity:1;fill-rule:nonzero;stroke:none;"
       id="text23737"
       x="212.31654"
       y="413.88623">
      <tspan
         x="212.31654 219.96153 227.60654"
         y="413.88623"
         sodipodi:role="line"
         id="tspan23739">11%</tspan>
    </text>
    <text
       style="font-variant:normal;font-weight:normal;font-size:13.75px;font-family:Helvetica;-inkscape-font-specification:Helvetica;writing-mode:lr-tb;fill:#3f3f3f;fill-opacity:1;fill-rule:nonzero;stroke:none;"
       id="text23741"
       x="342.10403"
       y="532.73022">
      <tspan
         x="342.10403 349.74905 357.39404"
         y="532.73022"
         sodipodi:role="line"
         id="tspan23743">29%</tspan>
    </text>
    <text
       style="font-variant:normal;font-weight:normal;font-size:13.75px;font-family:Helvetica;-inkscape-font-specification:Helvetica;writing-mode:lr-tb;fill:#3f3f3f;fill-opacity:1;fill-rule:nonzero;stroke:none;"
       id="text23745"
       x="345.92905"
       y="429.37552">
      <tspan
         x="345.92905 353.57404"
         y="429.37552"
         sodipodi:role="line"
         id="tspan23747">8%</tspan>
    </text>
    <text
       style="font-variant:normal;font-weight:normal;font-size:13.75px;font-family:Helvetica;-inkscape-font-specification:Helvetica;writing-mode:lr-tb;fill:#3f3f3f;fill-opacity:1;fill-rule:nonzero;stroke:none;"
       id="text23749"
       x="342.10403"
       y="351.09012">
      <tspan
         x="342.10403 349.74905 357.39404"
         y="351.09012"
         sodipodi:role="line"
         id="tspan23751">30%</tspan>
    </text>
    <text
       style="font-variant:normal;font-weight:normal;font-size:13.75px;font-family:Helvetica;-inkscape-font-specification:Helvetica;writing-mode:lr-tb;fill:#3f3f3f;fill-opacity:1;fill-rule:nonzero;stroke:none;"
       id="text23753"
       x="342.10403"
       y="465.98608">
      <tspan
         x="342.10403 349.74905 357.39404"
         y="465.98608"
         sodipodi:role="line"
         id="tspan23755">21%</tspan>
    </text>
    <text
       style="font-variant:normal;font-weight:normal;font-size:13.75px;font-family:Helvetica;-inkscape-font-specification:Helvetica;writing-mode:lr-tb;fill:#3f3f3f;fill-opacity:1;fill-rule:nonzero;stroke:none;"
       id="text23757"
       x="342.10403"
       y="402.37726">
      <tspan
         x="342.10403 349.74905 357.39404"
         y="402.37726"
         sodipodi:role="line"
         id="tspan23759">12%</tspan>
    </text>
    <text
       style="font-variant:normal;font-weight:normal;font-size:13.75px;font-family:Helvetica;-inkscape-font-specification:Helvetica;writing-mode:lr-tb;fill:#3f3f3f;fill-opacity:1;fill-rule:nonzero;stroke:none;"
       id="text23761"
       x="471.90405"
       y="532.73022">
      <tspan
         x="471.90405 479.54904 487.19403"
         y="532.73022"
         sodipodi:role="line"
         id="tspan23763">26%</tspan>
    </text>
    <text
       style="font-variant:normal;font-weight:normal;font-size:13.75px;font-family:Helvetica;-inkscape-font-specification:Helvetica;writing-mode:lr-tb;fill:#3f3f3f;fill-opacity:1;fill-rule:nonzero;stroke:none;"
       id="text23765"
       x="475.71655"
       y="429.68637">
      <tspan
         x="475.71655 483.36154"
         y="429.68637"
         sodipodi:role="line"
         id="tspan23767">7%</tspan>
    </text>
    <text
       style="font-variant:normal;font-weight:normal;font-size:13.75px;font-family:Helvetica;-inkscape-font-specification:Helvetica;writing-mode:lr-tb;fill:#3f3f3f;fill-opacity:1;fill-rule:nonzero;stroke:none;"
       id="text23769"
       x="471.90405"
       y="338.52216">
      <tspan
         x="471.90405 479.54904 487.19403"
         y="338.52216"
         sodipodi:role="line"
         id="tspan23771">32%</tspan>
    </text>
    <text
       style="font-variant:normal;font-weight:normal;font-size:13.75px;font-family:Helvetica;-inkscape-font-specification:Helvetica;writing-mode:lr-tb;fill:#3f3f3f;fill-opacity:1;fill-rule:nonzero;stroke:none;"
       id="text23773"
       x="471.90405"
       y="466.88132">
      <tspan
         x="471.90405 479.54904 487.19403"
         y="466.88132"
         sodipodi:role="line"
         id="tspan23775">21%</tspan>
    </text>
    <text
       style="font-variant:normal;font-weight:normal;font-size:13.75px;font-family:Helvetica;-inkscape-font-specification:Helvetica;writing-mode:lr-tb;fill:#3f3f3f;fill-opacity:1;fill-rule:nonzero;stroke:none;"
       id="text23777"
       x="471.90405"
       y="398.44867">
      <tspan
         x="471.90405 479.54904 487.19403"
         y="398.44867"
         sodipodi:role="line"
         id="tspan23779">14%</tspan>
    </text>
    <text
       style="font-variant:normal;font-weight:normal;font-size:13.75px;font-family:Helvetica;-inkscape-font-specification:Helvetica;writing-mode:lr-tb;fill:#3f3f3f;fill-opacity:1;fill-rule:nonzero;stroke:none;"
       id="text23781"
       x="601.69153"
       y="532.73022">
      <tspan
         x="601.69153 609.33655 616.98157"
         y="532.73022"
         sodipodi:role="line"
         id="tspan23783">23%</tspan>
    </text>
    <text
       style="font-variant:normal;font-weight:normal;font-size:13.75px;font-family:Helvetica;-inkscape-font-specification:Helvetica;writing-mode:lr-tb;fill:#3f3f3f;fill-opacity:1;fill-rule:nonzero;stroke:none;"
       id="text23785"
       x="605.51654"
       y="392.7265">
      <tspan
         x="605.51654 613.16156"
         y="392.7265"
         sodipodi:role="line"
         id="tspan23787">6%</tspan>
    </text>
    <text
       style="font-variant:normal;font-weight:normal;font-size:13.75px;font-family:Helvetica;-inkscape-font-specification:Helvetica;writing-mode:lr-tb;fill:#3f3f3f;fill-opacity:1;fill-rule:nonzero;stroke:none;"
       id="text23789"
       x="601.69153"
       y="276.5343">
      <tspan
         x="601.69153 609.33655 616.98157"
         y="276.5343"
         sodipodi:role="line"
         id="tspan23791">34%</tspan>
    </text>
    <text
       style="font-variant:normal;font-weight:normal;font-size:13.75px;font-family:Helvetica;-inkscape-font-specification:Helvetica;writing-mode:lr-tb;fill:#003246;fill-opacity:1;fill-rule:nonzero;stroke:none"
       id="text23793"
       x="601.69153"
       y="447.31287">
      <tspan
         x="601.69153 609.33655 616.98157"
         y="447.31287"
         sodipodi:role="line"
         id="tspan23795">24%</tspan>
    </text>
    <text
       style="font-variant:normal;font-weight:normal;font-size:13.75px;font-family:Helvetica;-inkscape-font-specification:Helvetica;writing-mode:lr-tb;fill:#3f3f3f;fill-opacity:1;fill-rule:nonzero;stroke:none;"
       id="text23797"
       x="601.69153"
       y="359.28494">
      <tspan
         x="601.69153 609.33655 616.98157"
         y="359.28494"
         sodipodi:role="line"
         id="tspan23799">14%</tspan>
    </text>
    <text
       style="font-variant:normal;font-weight:normal;font-size:13.75px;font-family:Helvetica;-inkscape-font-specification:Helvetica;writing-mode:lr-tb;fill:#3f3f3f;fill-opacity:1;fill-rule:nonzero;stroke:none;"
       id="text23801"
       x="692.54156"
       y="532.73022">
      <tspan
         x="692.54156 700.18652 707.83154"
         y="532.73022"
         sodipodi:role="line"
         id="tspan23803">22%</tspan>
    </text>
    <text
       style="font-variant:normal;font-weight:normal;font-size:13.75px;font-family:Helvetica;-inkscape-font-specification:Helvetica;writing-mode:lr-tb;fill:#3f3f3f;fill-opacity:1;fill-rule:nonzero;stroke:none;"
       id="text23805"
       x="696.36652"
       y="382.46432">
      <tspan
         x="696.36652 704.01154"
         y="382.46432"
         sodipodi:role="line"
         id="tspan23807">6%</tspan>
    </text>
    <text
       style="font-variant:normal;font-weight:normal;font-size:13.75px;font-family:Helvetica;-inkscape-font-specification:Helvetica;writing-mode:lr-tb;fill:#3f3f3f;fill-opacity:1;fill-rule:nonzero;stroke:none;"
       id="text23809"
       x="692.54156"
       y="252.49605">
      <tspan
         x="692.54156 700.18652 707.83154"
         y="252.49605"
         sodipodi:role="line"
         id="tspan23811">34%</tspan>
    </text>
    <text
       style="font-variant:normal;font-weight:normal;font-size:13.75px;font-family:Helvetica;-inkscape-font-specification:Helvetica;writing-mode:lr-tb;fill:#3f3f3f;fill-opacity:1;fill-rule:nonzero;stroke:none;"
       id="text23813"
       x="692.54156"
       y="436.95657">
      <tspan
         x="692.54156 700.18652 707.83154"
         y="436.95657"
         sodipodi:role="line"
         id="tspan23815">25%</tspan>
    </text>
    <text
       style="font-variant:normal;font-weight:normal;font-size:13.75px;font-family:Helvetica;-inkscape-font-specification:Helvetica;writing-mode:lr-tb;fill:#3f3f3f;fill-opacity:1;fill-rule:nonzero;stroke:none;"
       id="text23817"
       x="692.54156"
       y="344.18372">
      <tspan
         x="692.54156 700.18652 707.83154"
         y="344.18372"
         sodipodi:role="line"
         id="tspan23819">14%</tspan>
    </text>
    <text
       id="text23867"
       style="font-variant:normal;font-weight:normal;font-size:11.25px;font-family:Helvetica;-inkscape-font-specification:Helvetica;writing-mode:lr-tb;fill:#4d4d4d;fill-opacity:1;fill-rule:nonzero;stroke:none"
       x="53.354038"
       y="568.62079">
      <tspan
         id="tspan23869"
         y="568.62079"
         x="53.354038">0</tspan>
    </text>
    <text
       id="text23871"
       style="font-variant:normal;font-weight:normal;font-size:11.25px;font-family:Helvetica;-inkscape-font-specification:Helvetica;writing-mode:lr-tb;fill:#4d4d4d;fill-opacity:1;fill-rule:nonzero;stroke:none"
       x="47.104038"
       y="434.43332">
      <tspan
         id="tspan23873"
         sodipodi:role="line"
         y="434.43332"
         x="47.104038 53.359039">20</tspan>
    </text>
    <text
       id="text23875"
       style="font-variant:normal;font-weight:normal;font-size:11.25px;font-family:Helvetica;-inkscape-font-specification:Helvetica;writing-mode:lr-tb;fill:#4d4d4d;fill-opacity:1;fill-rule:nonzero;stroke:none"
       x="47.104038"
       y="300.24582">
      <tspan
         id="tspan23877"
         sodipodi:role="line"
         y="300.24582"
         x="47.104038 53.359039">40</tspan>
    </text>
    <text
       id="text23923"
       style="font-variant:normal;font-weight:normal;font-size:11.25px;font-family:Helvetica;-inkscape-font-specification:Helvetica;writing-mode:lr-tb;fill:#4d4d4d;fill-opacity:1;fill-rule:nonzero;stroke:none"
       x="83.766541"
       y="597.85834">
      <tspan
         id="tspan23925"
         sodipodi:role="line"
         y="597.85834"
         x="83.766541 90.021538 96.276535 102.53154">1970</tspan>
    </text>
    <text
       id="text23927"
       style="font-variant:normal;font-weight:normal;font-size:11.25px;font-family:Helvetica;-inkscape-font-specification:Helvetica;writing-mode:lr-tb;fill:#4d4d4d;fill-opacity:1;fill-rule:nonzero;stroke:none"
       x="213.55405"
       y="597.85834">
      <tspan
         id="tspan23929"
         sodipodi:role="line"
         y="597.85834"
         x="213.55405 219.80904 226.06404 232.31905">1980</tspan>
    </text>
    <text
       id="text23931"
       style="font-variant:normal;font-weight:normal;font-size:11.25px;font-family:Helvetica;-inkscape-font-specification:Helvetica;writing-mode:lr-tb;fill:#4d4d4d;fill-opacity:1;fill-rule:nonzero;stroke:none"
       x="343.35403"
       y="597.85834">
      <tspan
         id="tspan23933"
         sodipodi:role="line"
         y="597.85834"
         x="343.35403 349.60904 355.86404 362.11905">1990</tspan>
    </text>
    <text
       id="text23935"
       style="font-variant:normal;font-weight:normal;font-size:11.25px;font-family:Helvetica;-inkscape-font-specification:Helvetica;writing-mode:lr-tb;fill:#4d4d4d;fill-opacity:1;fill-rule:nonzero;stroke:none"
       x="473.14154"
       y="597.85834">
      <tspan
         id="tspan23937"
         sodipodi:role="line"
         y="597.85834"
         x="473.14154 479.39655 485.65155 491.90656">2000</tspan>
    </text>
    <text
       id="text23939"
       style="font-variant:normal;font-weight:normal;font-size:11.25px;font-family:Helvetica;-inkscape-font-specification:Helvetica;writing-mode:lr-tb;fill:#4d4d4d;fill-opacity:1;fill-rule:nonzero;stroke:none"
       x="602.94153"
       y="597.85834">
      <tspan
         id="tspan23941"
         sodipodi:role="line"
         y="597.85834"
         x="602.94153 609.19653 615.45154 621.70654">2010</tspan>
    </text>
    <text
       id="text23959"
       style="font-variant:normal;font-weight:normal;font-size:13.75px;font-family:Helvetica;-inkscape-font-specification:Helvetica;writing-mode:lr-tb;fill:#3f3f3f;fill-opacity:1;fill-rule:nonzero;stroke:none;"
       transform="matrix(0,-1,1,0,0,0)"
       x="-465.53333"
       y="40.37904">
      <tspan
         id="tspan23961"
         sodipodi:role="line"
         y="40.37904"
         x="-465.53333 -454.83582 -444.90833 -434.21082 -430.38831 -422.74332 -411.28955 -408.23706 -401.36206 -394.48706 -391.43457 -383.78955 -376.14456 -369.26956 -365.44705 -360.86832 -350.17081 -346.3483 -336.42081 -325.7233 -318.07831 -310.43332 -302.7883 -298.96582 -292.09082 -287.51205">GHG emissions (GtCO2eq/yr)</tspan>
    </text>
    <text
       id="text23999"
       style="font-variant:normal;font-weight:normal;font-size:13.75px;font-family:Helvetica;-inkscape-font-specification:Helvetica;writing-mode:lr-tb;fill:#f8766d;fill-opacity:1;fill-rule:nonzero;stroke:none"
       x="118.91654"
       y="198.22398">
      <tspan
         id="tspan24001"
         y="198.22398"
         x="118.91654">a</tspan>
    </text>
    <text
       id="text24019"
       style="font-variant:normal;font-weight:normal;font-size:13.75px;font-family:Helvetica;-inkscape-font-specification:Helvetica;writing-mode:lr-tb;fill:#a3a500;fill-opacity:1;fill-rule:nonzero;stroke:none"
       x="118.91654"
       y="219.82399">
      <tspan
         id="tspan24021"
         y="219.82399"
         x="118.91654">a</tspan>
    </text>
    <text
       id="text24039"
       style="font-variant:normal;font-weight:normal;font-size:13.75px;font-family:Helvetica;-inkscape-font-specification:Helvetica;writing-mode:lr-tb;fill:#00bf7d;fill-opacity:1;fill-rule:nonzero;stroke:none"
       x="118.91654"
       y="241.42398">
      <tspan
         id="tspan24041"
         y="241.42398"
         x="118.91654">a</tspan>
    </text>
    <text
       id="text24059"
       style="font-variant:normal;font-weight:normal;font-size:13.75px;font-family:Helvetica;-inkscape-font-specification:Helvetica;writing-mode:lr-tb;fill:#00b0f6;fill-opacity:1;fill-rule:nonzero;stroke:none"
       x="118.91654"
       y="263.02399">
      <tspan
         id="tspan24061"
         y="263.02399"
         x="118.91654">a</tspan>
    </text>
    <text
       id="text24079"
       style="font-variant:normal;font-weight:normal;font-size:13.75px;font-family:Helvetica;-inkscape-font-specification:Helvetica;writing-mode:lr-tb;fill:#e76bf3;fill-opacity:1;fill-rule:nonzero;stroke:none"
       x="118.91654"
       y="284.62399">
      <tspan
         id="tspan24081"
         y="284.62399"
         x="118.91654">a</tspan>
    </text>
    <text
       id="text24091"
       style="font-variant:normal;font-weight:normal;font-size:11.25px;font-family:Helvetica;-inkscape-font-specification:Helvetica;writing-mode:lr-tb;fill:#3f3f3f;fill-opacity:1;fill-rule:nonzero;stroke:none"
       x="138.08722"
       y="197.32399">
      <tspan
         id="tspan24093"
         sodipodi:role="line"
         y="197.32399"
         x="138.08722 145.59097 151.84598 158.10097 161.84723 168.10222">Energy</tspan>
    </text>
    <text
       id="text24105"
       style="font-variant:normal;font-weight:normal;font-size:11.25px;font-family:Helvetica;-inkscape-font-specification:Helvetica;writing-mode:lr-tb;fill:#3f3f3f;fill-opacity:1;fill-rule:nonzero;stroke:none"
       x="138.08722"
       y="218.92398">
      <tspan
         id="tspan24107"
         sodipodi:role="line"
         y="218.92398"
         x="138.08722 143.61098 147.24472 153.49973 159.75473 165.37973 171.63472 177.88972 182.08598">Transport</tspan>
    </text>
    <text
       id="text24119"
       style="font-variant:normal;font-weight:normal;font-size:11.25px;font-family:Helvetica;-inkscape-font-specification:Helvetica;writing-mode:lr-tb;fill:#3f3f3f;fill-opacity:1;fill-rule:nonzero;stroke:none"
       x="138.08722"
       y="240.52399">
      <tspan
         id="tspan24121"
         sodipodi:role="line"
         y="240.52399"
         x="138.08722 145.59097 151.84598 154.34348 156.84097 163.09598 165.59348 171.84848 178.10347">Buildings</tspan>
    </text>
    <text
       id="text24133"
       style="font-variant:normal;font-weight:normal;font-size:11.25px;font-family:Helvetica;-inkscape-font-specification:Helvetica;writing-mode:lr-tb;fill:#3f3f3f;fill-opacity:1;fill-rule:nonzero;stroke:none"
       x="138.08722"
       y="262.12399">
      <tspan
         id="tspan24135"
         sodipodi:role="line"
         y="262.12399"
         x="138.08722 141.21472 147.46973 153.72473 159.97972 165.60472 168.73222 172.81598">Industry</tspan>
    </text>
    <text
       id="text24147"
       style="font-variant:normal;font-weight:normal;font-size:11.25px;font-family:Helvetica;-inkscape-font-specification:Helvetica;writing-mode:lr-tb;fill:#3f3f3f;fill-opacity:1;fill-rule:nonzero;stroke:none"
       x="138.08722"
       y="283.724">
      <tspan
         id="tspan24149"
         sodipodi:role="line"
         y="283.724"
         x="138.08722 145.59097 152.46472 161.21722 167.47223">AFOLU</tspan>
    </text>
  </g>
</svg>
