<?xml version="1.0" encoding="UTF-8" standalone="no"?>
<!-- Created with Inkscape (http://www.inkscape.org/) -->

<svg
   xmlns:dc="http://purl.org/dc/elements/1.1/"
   xmlns:cc="http://creativecommons.org/ns#"
   xmlns:rdf="http://www.w3.org/1999/02/22-rdf-syntax-ns#"
   xmlns:svg="http://www.w3.org/2000/svg"
   xmlns="http://www.w3.org/2000/svg"
   xmlns:sodipodi="http://sodipodi.sourceforge.net/DTD/sodipodi-0.dtd"
   xmlns:inkscape="http://www.inkscape.org/namespaces/inkscape"
   width="199.37366mm"
   height="122.24099mm"
   viewBox="0 0 706.44209 433.13736"
   id="svg2"
   version="1.1"
   inkscape:version="0.91 r13725"
   sodipodi:docname="ghgs_total_income.svg"
   inkscape:export-filename="C:\Users\lamw\Documents\SpiderOak Hive\Work\Projects\Climate-and-development-data\Results\Figures\ghgs_total_income.png"
   inkscape:export-xdpi="300"
   inkscape:export-ydpi="300">
  <defs
     id="defs4">
    <clipPath
       id="clipPath4170"
       clipPathUnits="userSpaceOnUse">
      <path
         inkscape:connector-curvature="0"
         id="path4172"
         d="m 33.7,19.51 536.82,0 0,335.01 -536.82,0 0,-335.01 z" />
    </clipPath>
  </defs>
  <sodipodi:namedview
     id="base"
     pagecolor="#ffffff"
     bordercolor="#666666"
     borderopacity="1.0"
     inkscape:pageopacity="0.0"
     inkscape:pageshadow="2"
     inkscape:zoom="1.4"
     inkscape:cx="364.18937"
     inkscape:cy="221.08931"
     inkscape:document-units="px"
     inkscape:current-layer="layer1"
     showgrid="false"
     fit-margin-top="0"
     fit-margin-left="0"
     fit-margin-right="0"
     fit-margin-bottom="0"
     inkscape:window-width="1920"
     inkscape:window-height="1027"
     inkscape:window-x="-8"
     inkscape:window-y="-8"
     inkscape:window-maximized="1" />
  <metadata
     id="metadata7">
    <rdf:RDF>
      <cc:Work
         rdf:about="">
        <dc:format>image/svg+xml</dc:format>
        <dc:type
           rdf:resource="http://purl.org/dc/dcmitype/StillImage" />
        <dc:title></dc:title>
      </cc:Work>
    </rdf:RDF>
  </metadata>
  <g
     inkscape:label="Layer 1"
     inkscape:groupmode="layer"
     id="layer1"
     transform="translate(-66.707916,-182.7836)">
    <path
       d="m 102.125,601.5461 671.025,0 0,-418.7625 -671.025,0 0,418.7625 z"
       style="fill:#ffffff;fill-opacity:1;fill-rule:nonzero;stroke:none"
       id="path4174"
       inkscape:connector-curvature="0" />
    <path
       d="m 102.125,545.6586 671.025,0"
       style="fill:none;stroke:#ebebeb;stroke-width:0.66249996;stroke-linecap:butt;stroke-linejoin:round;stroke-miterlimit:10;stroke-dasharray:none;stroke-opacity:1"
       id="path4176"
       inkscape:connector-curvature="0" />
    <path
       d="m 102.125,471.9461 671.025,0"
       style="fill:none;stroke:#ebebeb;stroke-width:0.66249996;stroke-linecap:butt;stroke-linejoin:round;stroke-miterlimit:10;stroke-dasharray:none;stroke-opacity:1"
       id="path4178"
       inkscape:connector-curvature="0" />
    <path
       d="m 102.125,398.2461 671.025,0"
       style="fill:none;stroke:#ebebeb;stroke-width:0.66249996;stroke-linecap:butt;stroke-linejoin:round;stroke-miterlimit:10;stroke-dasharray:none;stroke-opacity:1"
       id="path4180"
       inkscape:connector-curvature="0" />
    <path
       d="m 102.125,324.5336 671.025,0"
       style="fill:none;stroke:#ebebeb;stroke-width:0.66249996;stroke-linecap:butt;stroke-linejoin:round;stroke-miterlimit:10;stroke-dasharray:none;stroke-opacity:1"
       id="path4182"
       inkscape:connector-curvature="0" />
    <path
       d="m 102.125,250.8336 671.025,0"
       style="fill:none;stroke:#ebebeb;stroke-width:0.66249996;stroke-linecap:butt;stroke-linejoin:round;stroke-miterlimit:10;stroke-dasharray:none;stroke-opacity:1"
       id="path4184"
       inkscape:connector-curvature="0" />
    <path
       d="m 197.5125,601.5461 0,-418.7625"
       style="fill:none;stroke:#ebebeb;stroke-width:0.66249996;stroke-linecap:butt;stroke-linejoin:round;stroke-miterlimit:10;stroke-dasharray:none;stroke-opacity:1"
       id="path4186"
       inkscape:connector-curvature="0" />
    <path
       d="m 327.3125,601.5461 0,-418.7625"
       style="fill:none;stroke:#ebebeb;stroke-width:0.66249996;stroke-linecap:butt;stroke-linejoin:round;stroke-miterlimit:10;stroke-dasharray:none;stroke-opacity:1"
       id="path4188"
       inkscape:connector-curvature="0" />
    <path
       d="m 457.1,601.5461 0,-418.7625"
       style="fill:none;stroke:#ebebeb;stroke-width:0.66249996;stroke-linecap:butt;stroke-linejoin:round;stroke-miterlimit:10;stroke-dasharray:none;stroke-opacity:1"
       id="path4190"
       inkscape:connector-curvature="0" />
    <path
       d="m 586.9,601.5461 0,-418.7625"
       style="fill:none;stroke:#ebebeb;stroke-width:0.66249996;stroke-linecap:butt;stroke-linejoin:round;stroke-miterlimit:10;stroke-dasharray:none;stroke-opacity:1"
       id="path4192"
       inkscape:connector-curvature="0" />
    <path
       d="m 716.6875,601.5461 0,-418.7625"
       style="fill:none;stroke:#ebebeb;stroke-width:0.66249996;stroke-linecap:butt;stroke-linejoin:round;stroke-miterlimit:10;stroke-dasharray:none;stroke-opacity:1"
       id="path4194"
       inkscape:connector-curvature="0" />
    <path
       d="m 102.125,582.5086 671.025,0"
       style="fill:none;stroke:#ebebeb;stroke-width:1.3375001;stroke-linecap:butt;stroke-linejoin:round;stroke-miterlimit:10;stroke-dasharray:none;stroke-opacity:1"
       id="path4196"
       inkscape:connector-curvature="0" />
    <path
       d="m 102.125,508.7961 671.025,0"
       style="fill:none;stroke:#ebebeb;stroke-width:1.3375001;stroke-linecap:butt;stroke-linejoin:round;stroke-miterlimit:10;stroke-dasharray:none;stroke-opacity:1"
       id="path4198"
       inkscape:connector-curvature="0" />
    <path
       d="m 102.125,435.0961 671.025,0"
       style="fill:none;stroke:#ebebeb;stroke-width:1.3375001;stroke-linecap:butt;stroke-linejoin:round;stroke-miterlimit:10;stroke-dasharray:none;stroke-opacity:1"
       id="path4200"
       inkscape:connector-curvature="0" />
    <path
       d="m 102.125,361.3836 671.025,0"
       style="fill:none;stroke:#ebebeb;stroke-width:1.3375001;stroke-linecap:butt;stroke-linejoin:round;stroke-miterlimit:10;stroke-dasharray:none;stroke-opacity:1"
       id="path4202"
       inkscape:connector-curvature="0" />
    <path
       d="m 102.125,287.6836 671.025,0"
       style="fill:none;stroke:#ebebeb;stroke-width:1.3375001;stroke-linecap:butt;stroke-linejoin:round;stroke-miterlimit:10;stroke-dasharray:none;stroke-opacity:1"
       id="path4204"
       inkscape:connector-curvature="0" />
    <path
       d="m 102.125,213.9711 671.025,0"
       style="fill:none;stroke:#ebebeb;stroke-width:1.3375001;stroke-linecap:butt;stroke-linejoin:round;stroke-miterlimit:10;stroke-dasharray:none;stroke-opacity:1"
       id="path4206"
       inkscape:connector-curvature="0" />
    <path
       d="m 132.625,601.5461 0,-418.7625"
       style="fill:none;stroke:#ebebeb;stroke-width:1.3375001;stroke-linecap:butt;stroke-linejoin:round;stroke-miterlimit:10;stroke-dasharray:none;stroke-opacity:1"
       id="path4208"
       inkscape:connector-curvature="0" />
    <path
       d="m 262.4125,601.5461 0,-418.7625"
       style="fill:none;stroke:#ebebeb;stroke-width:1.3375001;stroke-linecap:butt;stroke-linejoin:round;stroke-miterlimit:10;stroke-dasharray:none;stroke-opacity:1"
       id="path4210"
       inkscape:connector-curvature="0" />
    <path
       d="m 392.2125,601.5461 0,-418.7625"
       style="fill:none;stroke:#ebebeb;stroke-width:1.3375001;stroke-linecap:butt;stroke-linejoin:round;stroke-miterlimit:10;stroke-dasharray:none;stroke-opacity:1"
       id="path4212"
       inkscape:connector-curvature="0" />
    <path
       d="m 522,601.5461 0,-418.7625"
       style="fill:none;stroke:#ebebeb;stroke-width:1.3375001;stroke-linecap:butt;stroke-linejoin:round;stroke-miterlimit:10;stroke-dasharray:none;stroke-opacity:1"
       id="path4214"
       inkscape:connector-curvature="0" />
    <path
       d="m 651.8,601.5461 0,-418.7625"
       style="fill:none;stroke:#ebebeb;stroke-width:1.3375001;stroke-linecap:butt;stroke-linejoin:round;stroke-miterlimit:10;stroke-dasharray:none;stroke-opacity:1"
       id="path4216"
       inkscape:connector-curvature="0" />
    <path
       d="m 132.625,397.4961 12.975,-1.675 12.975,-7.9 12.9875,-10.975 12.975,-0.3625 12.975,1.3875 12.9875,-10.5875 12.975,-4.2625 12.9875,-7.175 12.975,-3.8 12.975,3.1125 12.9875,6.0875 12.975,1.85 12.975,-0.9 12.9875,-4.7875 12.975,-2.175 12.975,-2.9875 12.9875,-4.9375 12.975,-7.9375 12.975,-4 12.9875,-0.4625 12.975,-0.7125 12.975,0.325 12.9875,-0.6875 12.975,-2.5875 12.975,-5.7125 12.9875,-4 12.975,-1.9 12.975,0.2625 12.9875,-1.9875 12.975,-6.65 12.975,-2.5625 12.9875,-4.2125 12.975,-11.1125 12.975,-12.4125 12.9875,-10.125 12.975,-9.9125 12.9875,-10.5375 12.975,-2.35 12.975,2.85 12.9875,-16.0875 12.975,-10.4 12.975,-4.725 12.9875,-5.125 12.975,-4.175 12.975,-1.175 12.9875,-2.45 12.975,-5.025 0,129.575 -12.975,3.975 -12.9875,2.825 -12.975,1.65 -12.975,4.25 -12.9875,4.7375 -12.975,5.1375 -12.975,10.3375 -12.9875,11.5875 -12.975,3.15 -12.975,4.575 -12.9875,8.925 -12.975,9.5875 -12.9875,9.6875 -12.975,10.675 -12.975,9.325 -12.9875,4.375 -12.975,2.575 -12.975,3.775 -12.9875,1.0625 -12.975,0.2 -12.975,0.575 -12.9875,0.9875 -12.975,4.3375 -12.975,0.5375 -12.9875,-0.0875 -12.975,-0.275 -12.975,0.6125 -12.9875,2.0375 -12.975,2.6 -12.975,4.6125 -12.9875,3.2 -12.975,3.2625 -12.975,2.025 -12.9875,2.725 -12.975,1.7125 -12.975,2.05 -12.9875,-1.725 -12.975,-0.1 -12.975,1.8375 -12.9875,6.025 -12.975,2.7875 -12.9875,4.5625 -12.975,2.1625 -12.975,2.5375 -12.9875,4.9375 -12.975,3.3375 -12.975,1.4 0,-104.9875 z"
       style="fill:#f8766d;fill-opacity:1;fill-rule:nonzero;stroke:#f8766d;stroke-width:1.3375001;stroke-linecap:round;stroke-linejoin:round;stroke-miterlimit:10;stroke-dasharray:none;stroke-opacity:1"
       id="path4218"
       inkscape:connector-curvature="0" />
    <path
       d="m 132.625,502.4836 12.975,-1.4 12.975,-3.3375 12.9875,-4.9375 12.975,-2.5375 12.975,-2.1625 12.9875,-4.5625 12.975,-2.7875 12.9875,-6.025 12.975,-1.8375 12.975,0.1 12.9875,1.725 12.975,-2.05 12.975,-1.7125 12.9875,-2.725 12.975,-2.025 12.975,-3.2625 12.9875,-3.2 12.975,-4.6125 12.975,-2.6 12.9875,-2.0375 12.975,-0.6125 12.975,0.275 12.9875,0.0875 12.975,-0.5375 12.975,-4.3375 12.9875,-0.9875 12.975,-0.575 12.975,-0.2 12.9875,-1.0625 12.975,-3.775 12.975,-2.575 12.9875,-4.375 12.975,-9.325 12.975,-10.675 12.9875,-9.6875 12.975,-9.5875 12.9875,-8.925 12.975,-4.575 12.975,-3.15 12.9875,-11.5875 12.975,-10.3375 12.975,-5.1375 12.9875,-4.7375 12.975,-4.25 12.975,-1.65 12.9875,-2.825 12.975,-3.975 0,172.7 -12.975,1.775 -12.9875,1.9875 -12.975,1.4375 -12.975,2.3 -12.9875,0.6375 -12.975,1.325 -12.975,1.8875 -12.9875,2.525 -12.975,0.8625 -12.975,1.5375 -12.9875,2.4125 -12.975,1.8125 -12.9875,1.8875 -12.975,2.0875 -12.975,1.8875 -12.9875,0.75 -12.975,0.6125 -12.975,0.6875 -12.9875,1.0875 -12.975,0.1875 -12.975,0.6875 -12.9875,0.75 -12.975,1.175 -12.975,-0.0625 -12.9875,-0.1 -12.975,0.0875 -12.975,0.35 -12.9875,0.15 -12.975,0.95 -12.975,1.4875 -12.9875,0.9 -12.975,1.375 -12.975,0.9 -12.9875,0.875 -12.975,0.7 -12.975,-0.0375 -12.9875,-0.5375 -12.975,-0.325 -12.975,1.975 -12.9875,1.925 -12.975,0.6625 -12.9875,1.2 -12.975,-0.6625 -12.975,1.3 -12.9875,1.65 -12.975,1.2625 -12.975,0.75 0,-50.6875 z"
       style="fill:#7cae00;fill-opacity:1;fill-rule:nonzero;stroke:#7cae00;stroke-width:1.3375001;stroke-linecap:round;stroke-linejoin:round;stroke-miterlimit:10;stroke-dasharray:none;stroke-opacity:1"
       id="path4220"
       inkscape:connector-curvature="0" />
    <path
       d="m 132.625,553.1711 12.975,-0.75 12.975,-1.2625 12.9875,-1.65 12.975,-1.3 12.975,0.6625 12.9875,-1.2 12.975,-0.6625 12.9875,-1.925 12.975,-1.975 12.975,0.325 12.9875,0.5375 12.975,0.0375 12.975,-0.7 12.9875,-0.875 12.975,-0.9 12.975,-1.375 12.9875,-0.9 12.975,-1.4875 12.975,-0.95 12.9875,-0.15 12.975,-0.35 12.975,-0.0875 12.9875,0.1 12.975,0.0625 12.975,-1.175 12.9875,-0.75 12.975,-0.6875 12.975,-0.1875 12.9875,-1.0875 12.975,-0.6875 12.975,-0.6125 12.9875,-0.75 12.975,-1.8875 12.975,-2.0875 12.9875,-1.8875 12.975,-1.8125 12.9875,-2.4125 12.975,-1.5375 12.975,-0.8625 12.9875,-2.525 12.975,-1.8875 12.975,-1.325 12.9875,-0.6375 12.975,-2.3 12.975,-1.4375 12.9875,-1.9875 12.975,-1.775 0,60.5 -12.975,0.325 -12.9875,0.425 -12.975,0.4625 -12.975,0.2625 -12.9875,0.2625 -12.975,-0.4625 -12.975,0.15 -12.9875,0.7625 -12.975,-0.475 -12.975,0.3625 -12.9875,0.5 -12.975,0.5 -12.9875,0.7 -12.975,0.8 -12.975,0.3625 -12.9875,0.3375 -12.975,-0.0875 -12.975,0.325 -12.9875,0.2375 -12.975,0.2625 -12.975,0.3 -12.9875,0.2375 -12.975,0.25 -12.975,0.2125 -12.9875,-0.125 -12.975,0.15 -12.975,0.0125 -12.9875,0.0875 -12.975,0.125 -12.975,0.3125 -12.9875,0.275 -12.975,0.35 -12.975,0.3 -12.9875,0.1125 -12.975,0 -12.975,-0.1 -12.9875,-0.0625 -12.975,0.025 -12.975,0.2875 -12.9875,0.7625 -12.975,0.2125 -12.9875,0.2 -12.975,-0.1875 -12.975,-0.1875 -12.9875,0.275 -12.975,0.225 -12.975,0.0375 0,-21.525 z"
       style="fill:#00bfc4;fill-opacity:1;fill-rule:nonzero;stroke:#00bfc4;stroke-width:1.3375001;stroke-linecap:round;stroke-linejoin:round;stroke-miterlimit:10;stroke-dasharray:none;stroke-opacity:1"
       id="path4222"
       inkscape:connector-curvature="0" />
    <path
       d="m 132.625,574.6961 12.975,-0.0375 12.975,-0.225 12.9875,-0.275 12.975,0.1875 12.975,0.1875 12.9875,-0.2 12.975,-0.2125 12.9875,-0.7625 12.975,-0.2875 12.975,-0.025 12.9875,0.0625 12.975,0.1 12.975,0 12.9875,-0.1125 12.975,-0.3 12.975,-0.35 12.9875,-0.275 12.975,-0.3125 12.975,-0.125 12.9875,-0.0875 12.975,-0.0125 12.975,-0.15 12.9875,0.125 12.975,-0.2125 12.975,-0.25 12.9875,-0.2375 12.975,-0.3 12.975,-0.2625 12.9875,-0.2375 12.975,-0.325 12.975,0.0875 12.9875,-0.3375 12.975,-0.3625 12.975,-0.8 12.9875,-0.7 12.975,-0.5 12.9875,-0.5 12.975,-0.3625 12.975,0.475 12.9875,-0.7625 12.975,-0.15 12.975,0.4625 12.9875,-0.2625 12.975,-0.2625 12.975,-0.4625 12.9875,-0.425 12.975,-0.325 0,17.9125 -12.975,0 -12.9875,0 -12.975,0 -12.975,0 -12.9875,0 -12.975,0 -12.975,0 -12.9875,0 -12.975,0 -12.975,0 -12.9875,0 -12.975,0 -12.9875,0 -12.975,0 -12.975,0 -12.9875,0 -12.975,0 -12.975,0 -12.9875,0 -12.975,0 -12.975,0 -12.9875,0 -12.975,0 -12.975,0 -12.9875,0 -12.975,0 -12.975,0 -12.9875,0 -12.975,0 -12.975,0 -12.9875,0 -12.975,0 -12.975,0 -12.9875,0 -12.975,0 -12.975,0 -12.9875,0 -12.975,0 -12.975,0 -12.9875,0 -12.975,0 -12.9875,0 -12.975,0 -12.975,0 -12.9875,0 -12.975,0 -12.975,0 0,-7.8125 z"
       style="fill:#c77cff;fill-opacity:1;fill-rule:nonzero;stroke:#c77cff;stroke-width:1.3375001;stroke-linecap:round;stroke-linejoin:round;stroke-miterlimit:10;stroke-dasharray:none;stroke-opacity:1"
       id="path4224"
       inkscape:connector-curvature="0" />
    <text
       style="font-variant:normal;font-weight:normal;font-size:13.75px;font-family:Helvetica;-inkscape-font-specification:Helvetica;writing-mode:lr-tb;fill:#383838;fill-opacity:1;fill-rule:nonzero;stroke:none;"
       id="text4226"
       x="118.8625"
       y="450.98004">
      <tspan
         x="118.8625 126.5075 134.1525"
         y="450.98004"
         sodipodi:role="line"
         id="tspan4228">57%</tspan>
    </text>
    <text
       style="font-variant:normal;font-weight:normal;font-size:13.75px;font-family:Helvetica;-inkscape-font-specification:Helvetica;writing-mode:lr-tb;fill:#383838;fill-opacity:1;fill-rule:nonzero;stroke:none;"
       id="text4230"
       x="118.8625"
       y="530.26398">
      <tspan
         x="118.8625 126.5075 134.1525"
         y="530.26398"
         sodipodi:role="line"
         id="tspan4232">27%</tspan>
    </text>
    <text
       style="font-variant:normal;font-weight:normal;font-size:13.75px;font-family:Helvetica;-inkscape-font-specification:Helvetica;writing-mode:lr-tb;fill:#383838;fill-opacity:1;fill-rule:nonzero;stroke:none;"
       id="text4234"
       x="118.8625"
       y="566.81573">
      <tspan
         x="118.8625 126.5075 134.1525"
         y="566.81573"
         sodipodi:role="line"
         id="tspan4236">12%</tspan>
    </text>
    <text
       style="font-variant:normal;font-weight:normal;font-size:13.75px;font-family:Helvetica;-inkscape-font-specification:Helvetica;writing-mode:lr-tb;fill:#383838;fill-opacity:1;fill-rule:nonzero;stroke:none;"
       id="text4238"
       x="122.6875"
       y="582.38898">
      <tspan
         x="122.6875 130.3325"
         y="582.38898"
         sodipodi:role="line"
         id="tspan4240">4%</tspan>
    </text>
    <text
       style="font-variant:normal;font-weight:normal;font-size:13.75px;font-family:Helvetica;-inkscape-font-specification:Helvetica;writing-mode:lr-tb;fill:#383838;fill-opacity:1;fill-rule:nonzero;stroke:none;"
       id="text4242"
       x="248.66251"
       y="417.93359">
      <tspan
         x="248.66251 256.3075 263.95251"
         y="417.93359"
         sodipodi:role="line"
         id="tspan4244">52%</tspan>
    </text>
    <text
       style="font-variant:normal;font-weight:normal;font-size:13.75px;font-family:Helvetica;-inkscape-font-specification:Helvetica;writing-mode:lr-tb;fill:#383838;fill-opacity:1;fill-rule:nonzero;stroke:none;"
       id="text4246"
       x="248.66251"
       y="515.62109">
      <tspan
         x="248.66251 256.3075 263.95251"
         y="515.62109"
         sodipodi:role="line"
         id="tspan4248">31%</tspan>
    </text>
    <text
       style="font-variant:normal;font-weight:normal;font-size:13.75px;font-family:Helvetica;-inkscape-font-specification:Helvetica;writing-mode:lr-tb;fill:#383838;fill-opacity:1;fill-rule:nonzero;stroke:none;"
       id="text4250"
       x="248.66251"
       y="561.96399">
      <tspan
         x="248.66251 256.3075 263.95251"
         y="561.96399"
         sodipodi:role="line"
         id="tspan4252">13%</tspan>
    </text>
    <text
       style="font-variant:normal;font-weight:normal;font-size:13.75px;font-family:Helvetica;-inkscape-font-specification:Helvetica;writing-mode:lr-tb;fill:#383838;fill-opacity:1;fill-rule:nonzero;stroke:none;"
       id="text4254"
       x="252.47501"
       y="581.80145">
      <tspan
         x="252.47501 260.12"
         y="581.80145"
         sodipodi:role="line"
         id="tspan4256">4%</tspan>
    </text>
    <text
       style="font-variant:normal;font-weight:normal;font-size:13.75px;font-family:Helvetica;-inkscape-font-specification:Helvetica;writing-mode:lr-tb;fill:#383838;fill-opacity:1;fill-rule:nonzero;stroke:none;"
       id="text4258"
       x="378.45001"
       y="398.29074">
      <tspan
         x="378.45001 386.095 393.73999"
         y="398.29074"
         sodipodi:role="line"
         id="tspan4260">47%</tspan>
    </text>
    <text
       style="font-variant:normal;font-weight:normal;font-size:13.75px;font-family:Helvetica;-inkscape-font-specification:Helvetica;writing-mode:lr-tb;fill:#383838;fill-opacity:1;fill-rule:nonzero;stroke:none;"
       id="text4262"
       x="378.45001"
       y="500.4068">
      <tspan
         x="378.45001 386.095 393.73999"
         y="500.4068"
         sodipodi:role="line"
         id="tspan4264">35%</tspan>
    </text>
    <text
       style="font-variant:normal;font-weight:normal;font-size:13.75px;font-family:Helvetica;-inkscape-font-specification:Helvetica;writing-mode:lr-tb;fill:#383838;fill-opacity:1;fill-rule:nonzero;stroke:none;"
       id="text4266"
       x="378.45001"
       y="557.77826">
      <tspan
         x="378.45001 386.095 393.73999"
         y="557.77826"
         sodipodi:role="line"
         id="tspan4268">14%</tspan>
    </text>
    <text
       style="font-variant:normal;font-weight:normal;font-size:13.75px;font-family:Helvetica;-inkscape-font-specification:Helvetica;writing-mode:lr-tb;fill:#383838;fill-opacity:1;fill-rule:nonzero;stroke:none;"
       id="text4270"
       x="382.27499"
       y="582.80859">
      <tspan
         x="382.27499 389.92001"
         y="582.80859"
         sodipodi:role="line"
         id="tspan4272">4%</tspan>
    </text>
    <text
       style="font-variant:normal;font-weight:normal;font-size:13.75px;font-family:Helvetica;-inkscape-font-specification:Helvetica;writing-mode:lr-tb;fill:#383838;fill-opacity:1;fill-rule:nonzero;stroke:none;"
       id="text4274"
       x="508.25"
       y="377.99429">
      <tspan
         x="508.25 515.89502 523.53998"
         y="377.99429"
         sodipodi:role="line"
         id="tspan4276">47%</tspan>
    </text>
    <text
       style="font-variant:normal;font-weight:normal;font-size:13.75px;font-family:Helvetica;-inkscape-font-specification:Helvetica;writing-mode:lr-tb;fill:#383838;fill-opacity:1;fill-rule:nonzero;stroke:none;"
       id="text4278"
       x="508.25"
       y="486.48895">
      <tspan
         x="508.25 515.89502 523.53998"
         y="486.48895"
         sodipodi:role="line"
         id="tspan4280">34%</tspan>
    </text>
    <text
       style="font-variant:normal;font-weight:normal;font-size:13.75px;font-family:Helvetica;-inkscape-font-specification:Helvetica;writing-mode:lr-tb;fill:#383838;fill-opacity:1;fill-rule:nonzero;stroke:none;"
       id="text4282"
       x="508.25"
       y="556.40149">
      <tspan
         x="508.25 515.89502 523.53998"
         y="556.40149"
         sodipodi:role="line"
         id="tspan4284">14%</tspan>
    </text>
    <text
       style="font-variant:normal;font-weight:normal;font-size:13.75px;font-family:Helvetica;-inkscape-font-specification:Helvetica;writing-mode:lr-tb;fill:#383838;fill-opacity:1;fill-rule:nonzero;stroke:none;"
       id="text4286"
       x="512.0625"
       y="581.73535">
      <tspan
         x="512.0625 519.70752"
         y="581.73535"
         sodipodi:role="line"
         id="tspan4288">5%</tspan>
    </text>
    <text
       style="font-variant:normal;font-weight:normal;font-size:13.75px;font-family:Helvetica;-inkscape-font-specification:Helvetica;writing-mode:lr-tb;fill:#383838;fill-opacity:1;fill-rule:nonzero;stroke:none;"
       id="text4290"
       x="638.03748"
       y="306.37646">
      <tspan
         x="638.03748 645.6825 653.32751"
         y="306.37646"
         sodipodi:role="line"
         id="tspan4292">37%</tspan>
    </text>
    <text
       style="font-variant:normal;font-weight:normal;font-size:13.75px;font-family:Helvetica;-inkscape-font-specification:Helvetica;writing-mode:lr-tb;fill:#383838;fill-opacity:1;fill-rule:nonzero;stroke:none;"
       id="text4294"
       x="638.03748"
       y="446.68539">
      <tspan
         x="638.03748 645.6825 653.32751"
         y="446.68539"
         sodipodi:role="line"
         id="tspan4296">43%</tspan>
    </text>
    <text
       style="font-variant:normal;font-weight:normal;font-size:13.75px;font-family:Helvetica;-inkscape-font-specification:Helvetica;writing-mode:lr-tb;fill:#383838;fill-opacity:1;fill-rule:nonzero;stroke:none;"
       id="text4298"
       x="638.03748"
       y="545.40863">
      <tspan
         x="638.03748 645.6825 653.32751"
         y="545.40863"
         sodipodi:role="line"
         id="tspan4300">15%</tspan>
    </text>
    <text
       style="font-variant:normal;font-weight:normal;font-size:13.75px;font-family:Helvetica;-inkscape-font-specification:Helvetica;writing-mode:lr-tb;fill:#383838;fill-opacity:1;fill-rule:nonzero;stroke:none;"
       id="text4302"
       x="641.86249"
       y="580.30859">
      <tspan
         x="641.86249 649.50751"
         y="580.30859"
         sodipodi:role="line"
         id="tspan4304">5%</tspan>
    </text>
    <text
       style="font-variant:normal;font-weight:normal;font-size:13.75px;font-family:Helvetica;-inkscape-font-specification:Helvetica;writing-mode:lr-tb;fill:#383838;fill-opacity:1;fill-rule:nonzero;stroke:none"
       id="text4306"
       x="728.88751"
       y="271.33359">
      <tspan
         x="728.88751 736.53247 744.17749"
         y="271.33359"
         sodipodi:role="line"
         id="tspan4308">34%</tspan>
    </text>
    <text
       style="font-variant:normal;font-weight:normal;font-size:13.75px;font-family:Helvetica;-inkscape-font-specification:Helvetica;writing-mode:lr-tb;fill:#383838;fill-opacity:1;fill-rule:nonzero;stroke:none;"
       id="text4310"
       x="728.88751"
       y="424.45859">
      <tspan
         x="728.88751 736.53247 744.17749"
         y="424.45859"
         sodipodi:role="line"
         id="tspan4312">45%</tspan>
    </text>
    <text
       style="font-variant:normal;font-weight:normal;font-size:13.75px;font-family:Helvetica;-inkscape-font-specification:Helvetica;writing-mode:lr-tb;fill:#383838;fill-opacity:1;fill-rule:nonzero;stroke:none;"
       id="text4314"
       x="728.88751"
       y="540.8175">
      <tspan
         x="728.88751 736.53247 744.17749"
         y="540.8175"
         sodipodi:role="line"
         id="tspan4316">16%</tspan>
    </text>
    <text
       style="font-variant:normal;font-weight:normal;font-size:13.75px;font-family:Helvetica;-inkscape-font-specification:Helvetica;writing-mode:lr-tb;fill:#383838;fill-opacity:1;fill-rule:nonzero;stroke:none;"
       id="text4318"
       x="732.71252"
       y="580.24255">
      <tspan
         x="732.71252 740.35748"
         y="580.24255"
         sodipodi:role="line"
         id="tspan4320">5%</tspan>
    </text>
    <path
       d="m 132.625,601.5461 0,-418.7625"
       style="fill:none;stroke:#000000;stroke-width:1.3375001;stroke-linecap:butt;stroke-linejoin:round;stroke-miterlimit:10;stroke-dasharray:5.3375, 5.3375;stroke-dashoffset:0;stroke-opacity:0.30199998"
       id="path4322"
       inkscape:connector-curvature="0" />
    <path
       d="m 262.4125,601.5461 0,-418.7625"
       style="fill:none;stroke:#000000;stroke-width:1.3375001;stroke-linecap:butt;stroke-linejoin:round;stroke-miterlimit:10;stroke-dasharray:5.3375, 5.3375;stroke-dashoffset:0;stroke-opacity:0.30199998"
       id="path4324"
       inkscape:connector-curvature="0" />
    <path
       d="m 392.2125,601.5461 0,-418.7625"
       style="fill:none;stroke:#000000;stroke-width:1.3375001;stroke-linecap:butt;stroke-linejoin:round;stroke-miterlimit:10;stroke-dasharray:5.3375, 5.3375;stroke-dashoffset:0;stroke-opacity:0.30199998"
       id="path4326"
       inkscape:connector-curvature="0" />
    <path
       d="m 522,601.5461 0,-418.7625"
       style="fill:none;stroke:#000000;stroke-width:1.3375001;stroke-linecap:butt;stroke-linejoin:round;stroke-miterlimit:10;stroke-dasharray:5.3375, 5.3375;stroke-dashoffset:0;stroke-opacity:0.30199998"
       id="path4328"
       inkscape:connector-curvature="0" />
    <path
       d="m 651.8,601.5461 0,-418.7625"
       style="fill:none;stroke:#000000;stroke-width:1.3375001;stroke-linecap:butt;stroke-linejoin:round;stroke-miterlimit:10;stroke-dasharray:5.3375, 5.3375;stroke-dashoffset:0;stroke-opacity:0.30199998"
       id="path4330"
       inkscape:connector-curvature="0" />
    <path
       d="m 742.65,601.5461 0,-418.7625"
       style="fill:none;stroke:#000000;stroke-width:1.3375001;stroke-linecap:butt;stroke-linejoin:round;stroke-miterlimit:10;stroke-dasharray:5.3375, 5.3375;stroke-dashoffset:0;stroke-opacity:0.30199998"
       id="path4332"
       inkscape:connector-curvature="0" />
    <path
       d="m 102.125,601.5461 671.025,0 0,-418.7625 -671.025,0 0,418.7625 z"
       style="fill:none;stroke:#333333;stroke-width:1.3375001;stroke-linecap:round;stroke-linejoin:round;stroke-miterlimit:10;stroke-dasharray:none;stroke-opacity:1"
       id="path4334"
       inkscape:connector-curvature="0" />
    <text
       id="text4368"
       style="font-variant:normal;font-weight:normal;font-size:11.25px;font-family:Helvetica;-inkscape-font-specification:Helvetica;writing-mode:lr-tb;fill:#4d4d4d;fill-opacity:1;fill-rule:nonzero;stroke:none"
       x="89.700005"
       y="586.54608"
       inkscape:export-xdpi="300"
       inkscape:export-ydpi="300">
      <tspan
         id="tspan4370"
         y="586.54608"
         x="89.700005">0</tspan>
    </text>
    <text
       id="text4372"
       style="font-variant:normal;font-weight:normal;font-size:11.25px;font-family:Helvetica;-inkscape-font-specification:Helvetica;writing-mode:lr-tb;fill:#4d4d4d;fill-opacity:1;fill-rule:nonzero;stroke:none"
       x="83.450005"
       y="512.84613"
       inkscape:export-xdpi="300"
       inkscape:export-ydpi="300">
      <tspan
         id="tspan4374"
         sodipodi:role="line"
         y="512.84613"
         x="83.450005 89.705002">10</tspan>
    </text>
    <text
       id="text4376"
       style="font-variant:normal;font-weight:normal;font-size:11.25px;font-family:Helvetica;-inkscape-font-specification:Helvetica;writing-mode:lr-tb;fill:#4d4d4d;fill-opacity:1;fill-rule:nonzero;stroke:none"
       x="83.450005"
       y="439.13361"
       inkscape:export-xdpi="300"
       inkscape:export-ydpi="300">
      <tspan
         id="tspan4378"
         sodipodi:role="line"
         y="439.13361"
         x="83.450005 89.705002">20</tspan>
    </text>
    <text
       id="text4380"
       style="font-variant:normal;font-weight:normal;font-size:11.25px;font-family:Helvetica;-inkscape-font-specification:Helvetica;writing-mode:lr-tb;fill:#4d4d4d;fill-opacity:1;fill-rule:nonzero;stroke:none"
       x="83.450005"
       y="365.43359"
       inkscape:export-xdpi="300"
       inkscape:export-ydpi="300">
      <tspan
         id="tspan4382"
         sodipodi:role="line"
         y="365.43359"
         x="83.450005 89.705002">30</tspan>
    </text>
    <text
       id="text4384"
       style="font-variant:normal;font-weight:normal;font-size:11.25px;font-family:Helvetica;-inkscape-font-specification:Helvetica;writing-mode:lr-tb;fill:#4d4d4d;fill-opacity:1;fill-rule:nonzero;stroke:none"
       x="83.450005"
       y="291.7211"
       inkscape:export-xdpi="300"
       inkscape:export-ydpi="300">
      <tspan
         id="tspan4386"
         sodipodi:role="line"
         y="291.7211"
         x="83.450005 89.705002">40</tspan>
    </text>
    <text
       id="text4388"
       style="font-variant:normal;font-weight:normal;font-size:11.25px;font-family:Helvetica;-inkscape-font-specification:Helvetica;writing-mode:lr-tb;fill:#4d4d4d;fill-opacity:1;fill-rule:nonzero;stroke:none"
       x="83.450005"
       y="218.0211"
       inkscape:export-xdpi="300"
       inkscape:export-ydpi="300">
      <tspan
         id="tspan4390"
         sodipodi:role="line"
         y="218.0211"
         x="83.450005 89.705002">50</tspan>
    </text>
    <path
       inkscape:connector-curvature="0"
       id="path4396"
       style="fill:none;stroke:#333333;stroke-width:1.3375001;stroke-linecap:butt;stroke-linejoin:round;stroke-miterlimit:10;stroke-dasharray:none;stroke-opacity:1"
       d="m 98.700004,582.5086 3.424996,0"
       inkscape:export-xdpi="300"
       inkscape:export-ydpi="300" />
    <path
       inkscape:connector-curvature="0"
       id="path4398"
       style="fill:none;stroke:#333333;stroke-width:1.3375001;stroke-linecap:butt;stroke-linejoin:round;stroke-miterlimit:10;stroke-dasharray:none;stroke-opacity:1"
       d="m 98.700004,508.7961 3.424996,0"
       inkscape:export-xdpi="300"
       inkscape:export-ydpi="300" />
    <path
       inkscape:connector-curvature="0"
       id="path4400"
       style="fill:none;stroke:#333333;stroke-width:1.3375001;stroke-linecap:butt;stroke-linejoin:round;stroke-miterlimit:10;stroke-dasharray:none;stroke-opacity:1"
       d="m 98.700004,435.0961 3.424996,0"
       inkscape:export-xdpi="300"
       inkscape:export-ydpi="300" />
    <path
       inkscape:connector-curvature="0"
       id="path4402"
       style="fill:none;stroke:#333333;stroke-width:1.3375001;stroke-linecap:butt;stroke-linejoin:round;stroke-miterlimit:10;stroke-dasharray:none;stroke-opacity:1"
       d="m 98.700004,361.3836 3.424996,0"
       inkscape:export-xdpi="300"
       inkscape:export-ydpi="300" />
    <path
       inkscape:connector-curvature="0"
       id="path4404"
       style="fill:none;stroke:#333333;stroke-width:1.3375001;stroke-linecap:butt;stroke-linejoin:round;stroke-miterlimit:10;stroke-dasharray:none;stroke-opacity:1"
       d="m 98.700004,287.6836 3.424996,0"
       inkscape:export-xdpi="300"
       inkscape:export-ydpi="300" />
    <path
       inkscape:connector-curvature="0"
       id="path4406"
       style="fill:none;stroke:#333333;stroke-width:1.3375001;stroke-linecap:butt;stroke-linejoin:round;stroke-miterlimit:10;stroke-dasharray:none;stroke-opacity:1"
       d="m 98.700004,213.9711 3.424996,0"
       inkscape:export-xdpi="300"
       inkscape:export-ydpi="300" />
    <path
       inkscape:connector-curvature="0"
       id="path4428"
       style="fill:none;stroke:#333333;stroke-width:1.3375001;stroke-linecap:butt;stroke-linejoin:round;stroke-miterlimit:10;stroke-dasharray:none;stroke-opacity:1"
       d="m 132.625,604.9711 0,-3.425"
       inkscape:export-xdpi="300"
       inkscape:export-ydpi="300" />
    <path
       inkscape:connector-curvature="0"
       id="path4430"
       style="fill:none;stroke:#333333;stroke-width:1.3375001;stroke-linecap:butt;stroke-linejoin:round;stroke-miterlimit:10;stroke-dasharray:none;stroke-opacity:1"
       d="m 262.4125,604.9711 0,-3.425"
       inkscape:export-xdpi="300"
       inkscape:export-ydpi="300" />
    <path
       inkscape:connector-curvature="0"
       id="path4432"
       style="fill:none;stroke:#333333;stroke-width:1.3375001;stroke-linecap:butt;stroke-linejoin:round;stroke-miterlimit:10;stroke-dasharray:none;stroke-opacity:1"
       d="m 392.2125,604.9711 0,-3.425"
       inkscape:export-xdpi="300"
       inkscape:export-ydpi="300" />
    <path
       inkscape:connector-curvature="0"
       id="path4434"
       style="fill:none;stroke:#333333;stroke-width:1.3375001;stroke-linecap:butt;stroke-linejoin:round;stroke-miterlimit:10;stroke-dasharray:none;stroke-opacity:1"
       d="m 522,604.9711 0,-3.425"
       inkscape:export-xdpi="300"
       inkscape:export-ydpi="300" />
    <path
       inkscape:connector-curvature="0"
       id="path4436"
       style="fill:none;stroke:#333333;stroke-width:1.3375001;stroke-linecap:butt;stroke-linejoin:round;stroke-miterlimit:10;stroke-dasharray:none;stroke-opacity:1"
       d="m 651.8,604.9711 0,-3.425"
       inkscape:export-xdpi="300"
       inkscape:export-ydpi="300" />
    <text
       id="text4442"
       style="font-variant:normal;font-weight:normal;font-size:11.25px;font-family:Helvetica;-inkscape-font-specification:Helvetica;writing-mode:lr-tb;fill:#4d4d4d;fill-opacity:1;fill-rule:nonzero;stroke:none"
       x="120.1125"
       y="615.78363"
       inkscape:export-xdpi="300"
       inkscape:export-ydpi="300">
      <tspan
         id="tspan4444"
         sodipodi:role="line"
         y="615.78363"
         x="120.1125 126.3675 132.6225 138.8775">1970</tspan>
    </text>
    <text
       id="text4446"
       style="font-variant:normal;font-weight:normal;font-size:11.25px;font-family:Helvetica;-inkscape-font-specification:Helvetica;writing-mode:lr-tb;fill:#4d4d4d;fill-opacity:1;fill-rule:nonzero;stroke:none"
       x="249.89999"
       y="615.78363"
       inkscape:export-xdpi="300"
       inkscape:export-ydpi="300">
      <tspan
         id="tspan4448"
         sodipodi:role="line"
         y="615.78363"
         x="249.89999 256.155 262.41 268.66501">1980</tspan>
    </text>
    <text
       id="text4450"
       style="font-variant:normal;font-weight:normal;font-size:11.25px;font-family:Helvetica;-inkscape-font-specification:Helvetica;writing-mode:lr-tb;fill:#4d4d4d;fill-opacity:1;fill-rule:nonzero;stroke:none"
       x="379.70001"
       y="615.78363"
       inkscape:export-xdpi="300"
       inkscape:export-ydpi="300">
      <tspan
         id="tspan4452"
         sodipodi:role="line"
         y="615.78363"
         x="379.70001 385.95499 392.20999 398.465">1990</tspan>
    </text>
    <text
       id="text4454"
       style="font-variant:normal;font-weight:normal;font-size:11.25px;font-family:Helvetica;-inkscape-font-specification:Helvetica;writing-mode:lr-tb;fill:#4d4d4d;fill-opacity:1;fill-rule:nonzero;stroke:none"
       x="509.48749"
       y="615.78363"
       inkscape:export-xdpi="300"
       inkscape:export-ydpi="300">
      <tspan
         id="tspan4456"
         sodipodi:role="line"
         y="615.78363"
         x="509.48749 515.74249 521.9975 528.2525">2000</tspan>
    </text>
    <text
       id="text4458"
       style="font-variant:normal;font-weight:normal;font-size:11.25px;font-family:Helvetica;-inkscape-font-specification:Helvetica;writing-mode:lr-tb;fill:#4d4d4d;fill-opacity:1;fill-rule:nonzero;stroke:none"
       x="639.28748"
       y="615.78363"
       inkscape:export-xdpi="300"
       inkscape:export-ydpi="300">
      <tspan
         id="tspan4460"
         sodipodi:role="line"
         y="615.78363"
         x="639.28748 645.54248 651.79749 658.05249">2010</tspan>
    </text>
    <text
       id="text4478"
       style="font-variant:normal;font-weight:normal;font-size:13.75px;font-family:Helvetica;-inkscape-font-specification:Helvetica;writing-mode:lr-tb;fill:#383838;fill-opacity:1;fill-rule:nonzero;stroke:none;"
       transform="matrix(0,-1,1,0,0,0)"
       x="-483.45859"
       y="76.725006"
       inkscape:export-xdpi="300"
       inkscape:export-ydpi="300">
      <tspan
         id="tspan4480"
         sodipodi:role="line"
         y="76.725006"
         x="-483.45859 -472.76111 -462.83359 -452.13611 -448.3136 -440.66861 -429.21484 -426.16235 -419.28735 -412.41235 -409.35986 -401.71484 -394.06985 -387.19485 -383.37234 -378.79361 -368.0961 -364.27359 -354.3461 -343.64859 -336.0036 -328.35861 -320.71359 -316.89111 -310.01611 -305.43735">GHG emissions (GtCO2eq/yr)</tspan>
    </text>
    <path
       inkscape:connector-curvature="0"
       id="path4506"
       style="fill:#ffffff;fill-opacity:1;fill-rule:nonzero;stroke:none"
       d="m 118.7,244.9336 21.6,0 0,-21.6 -21.6,0 0,21.6 z"
       inkscape:export-xdpi="300"
       inkscape:export-ydpi="300" />
    <path
       inkscape:connector-curvature="0"
       id="path4512"
       style="fill:#f8766d;fill-opacity:1;fill-rule:nonzero;stroke:#f8766d;stroke-width:1.3375001;stroke-linecap:round;stroke-linejoin:miter;stroke-miterlimit:10;stroke-dasharray:none;stroke-opacity:1"
       d="m 119.5875,244.0461 19.825,0 0,-19.825 -19.825,0 0,19.825 z"
       inkscape:export-xdpi="300"
       inkscape:export-ydpi="300" />
    <text
       id="text4518"
       style="font-variant:normal;font-weight:normal;font-size:13.75px;font-family:Helvetica;-inkscape-font-specification:Helvetica;writing-mode:lr-tb;fill:#f8766d;fill-opacity:1;fill-rule:nonzero;stroke:none"
       x="125.6875"
       y="239.07111"
       inkscape:export-xdpi="300"
       inkscape:export-ydpi="300">
      <tspan
         id="tspan4520"
         y="239.07111"
         x="125.6875">a</tspan>
    </text>
    <path
       inkscape:connector-curvature="0"
       id="path4526"
       style="fill:#ffffff;fill-opacity:1;fill-rule:nonzero;stroke:none"
       d="m 118.7,266.5336 21.6,0 0,-21.6 -21.6,0 0,21.6 z"
       inkscape:export-xdpi="300"
       inkscape:export-ydpi="300" />
    <path
       inkscape:connector-curvature="0"
       id="path4532"
       style="fill:#7cae00;fill-opacity:1;fill-rule:nonzero;stroke:#7cae00;stroke-width:1.3375001;stroke-linecap:round;stroke-linejoin:miter;stroke-miterlimit:10;stroke-dasharray:none;stroke-opacity:1"
       d="m 119.5875,265.6461 19.825,0 0,-19.825 -19.825,0 0,19.825 z"
       inkscape:export-xdpi="300"
       inkscape:export-ydpi="300" />
    <text
       id="text4538"
       style="font-variant:normal;font-weight:normal;font-size:13.75px;font-family:Helvetica;-inkscape-font-specification:Helvetica;writing-mode:lr-tb;fill:#7cae00;fill-opacity:1;fill-rule:nonzero;stroke:none"
       x="125.6875"
       y="260.67111"
       inkscape:export-xdpi="300"
       inkscape:export-ydpi="300">
      <tspan
         id="tspan4540"
         y="260.67111"
         x="125.6875">a</tspan>
    </text>
    <path
       inkscape:connector-curvature="0"
       id="path4546"
       style="fill:#ffffff;fill-opacity:1;fill-rule:nonzero;stroke:none"
       d="m 118.7,288.1336 21.6,0 0,-21.6 -21.6,0 0,21.6 z"
       inkscape:export-xdpi="300"
       inkscape:export-ydpi="300" />
    <path
       inkscape:connector-curvature="0"
       id="path4552"
       style="fill:#00bfc4;fill-opacity:1;fill-rule:nonzero;stroke:#00bfc4;stroke-width:1.3375001;stroke-linecap:round;stroke-linejoin:miter;stroke-miterlimit:10;stroke-dasharray:none;stroke-opacity:1"
       d="m 119.5875,287.2461 19.825,0 0,-19.825 -19.825,0 0,19.825 z"
       inkscape:export-xdpi="300"
       inkscape:export-ydpi="300" />
    <text
       id="text4558"
       style="font-variant:normal;font-weight:normal;font-size:13.75px;font-family:Helvetica;-inkscape-font-specification:Helvetica;writing-mode:lr-tb;fill:#00bfc4;fill-opacity:1;fill-rule:nonzero;stroke:none"
       x="125.6875"
       y="282.27109"
       inkscape:export-xdpi="300"
       inkscape:export-ydpi="300">
      <tspan
         id="tspan4560"
         y="282.27109"
         x="125.6875">a</tspan>
    </text>
    <path
       inkscape:connector-curvature="0"
       id="path4566"
       style="fill:#ffffff;fill-opacity:1;fill-rule:nonzero;stroke:none"
       d="m 118.7,309.7336 21.6,0 0,-21.6 -21.6,0 0,21.6 z"
       inkscape:export-xdpi="300"
       inkscape:export-ydpi="300" />
    <path
       inkscape:connector-curvature="0"
       id="path4572"
       style="fill:#c77cff;fill-opacity:1;fill-rule:nonzero;stroke:#c77cff;stroke-width:1.3375001;stroke-linecap:round;stroke-linejoin:miter;stroke-miterlimit:10;stroke-dasharray:none;stroke-opacity:1"
       d="m 119.5875,308.8461 19.825,0 0,-19.825 -19.825,0 0,19.825 z"
       inkscape:export-xdpi="300"
       inkscape:export-ydpi="300" />
    <text
       id="text4578"
       style="font-variant:normal;font-weight:normal;font-size:13.75px;font-family:Helvetica;-inkscape-font-specification:Helvetica;writing-mode:lr-tb;fill:#c77cff;fill-opacity:1;fill-rule:nonzero;stroke:none"
       x="125.6875"
       y="303.87109"
       inkscape:export-xdpi="300"
       inkscape:export-ydpi="300">
      <tspan
         id="tspan4580"
         y="303.87109"
         x="125.6875">a</tspan>
    </text>
    <text
       id="text4590"
       style="font-variant:normal;font-weight:normal;font-size:11.25px;font-family:Helvetica;-inkscape-font-specification:Helvetica;writing-mode:lr-tb;fill:#383838;fill-opacity:1;fill-rule:nonzero;stroke:none;"
       x="140.3"
       y="238.1711"
       inkscape:export-xdpi="300"
       inkscape:export-ydpi="300">
      <tspan
         id="tspan4592"
         sodipodi:role="line"
         y="238.1711"
         x="140.3 148.4225 150.92 157.175 163.42999 166.5575 169.05499 175.31 180.935 187.19 196.56125">High income</tspan>
    </text>
    <text
       id="text4604"
       style="font-variant:normal;font-weight:normal;font-size:11.25px;font-family:Helvetica;-inkscape-font-specification:Helvetica;writing-mode:lr-tb;fill:#383838;fill-opacity:1;fill-rule:nonzero;stroke:none;"
       x="140.3"
       y="259.77109"
       inkscape:export-xdpi="300"
       inkscape:export-ydpi="300">
      <tspan
         id="tspan4606"
         sodipodi:role="line"
         y="259.77109"
         x="140.3 148.4225 154.67751 160.9325 167.1875 170.93375 174.06125 183.4325 185.93001 192.185 198.44 200.9375 207.1925 210.31999 212.8175 219.07249 224.69749 230.9525 240.32375">Upper middle income</tspan>
    </text>
    <text
       id="text4618"
       style="font-variant:normal;font-weight:normal;font-size:11.25px;font-family:Helvetica;-inkscape-font-specification:Helvetica;writing-mode:lr-tb;fill:#383838;fill-opacity:1;fill-rule:nonzero;stroke:none;"
       x="140.3"
       y="281.37109"
       inkscape:export-xdpi="300"
       inkscape:export-ydpi="300">
      <tspan
         id="tspan4620"
         sodipodi:role="line"
         y="281.37109"
         x="140.3 146.55499 152.64125 160.65125 166.90625 170.6525 173.78 183.15125 185.64874 191.90375 198.15875 200.65625 206.91125 210.03876 212.53625 218.79124 224.41624 230.67125 240.0425">Lower middle income</tspan>
    </text>
    <text
       id="text4632"
       style="font-variant:normal;font-weight:normal;font-size:11.25px;font-family:Helvetica;-inkscape-font-specification:Helvetica;writing-mode:lr-tb;fill:#383838;fill-opacity:1;fill-rule:nonzero;stroke:none;"
       x="140.3"
       y="302.9711"
       inkscape:export-xdpi="300"
       inkscape:export-ydpi="300">
      <tspan
         id="tspan4634"
         sodipodi:role="line"
         y="302.9711"
         x="140.3 146.55499 152.64125 160.76375 163.89125 166.38875 172.64375 178.26875 184.52376 193.895">Low income</tspan>
    </text>
  </g>
</svg>
