<?xml version="1.0" encoding="UTF-8" standalone="no"?>
<!-- Created with Inkscape (http://www.inkscape.org/) -->

<svg
   xmlns:dc="http://purl.org/dc/elements/1.1/"
   xmlns:cc="http://creativecommons.org/ns#"
   xmlns:rdf="http://www.w3.org/1999/02/22-rdf-syntax-ns#"
   xmlns:svg="http://www.w3.org/2000/svg"
   xmlns="http://www.w3.org/2000/svg"
   xmlns:sodipodi="http://sodipodi.sourceforge.net/DTD/sodipodi-0.dtd"
   xmlns:inkscape="http://www.inkscape.org/namespaces/inkscape"
   width="199.56239mm"
   height="122.42972mm"
   viewBox="0 0 707.11084 433.80609"
   id="svg5400"
   version="1.1"
   inkscape:version="0.91 r13725"
   inkscape:export-filename="C:\Users\lamw\Documents\SpiderOak Hive\Work\Projects\Climate-and-development-data\Results\Figures\ghgs_total_gas.png"
   inkscape:export-xdpi="300"
   inkscape:export-ydpi="300"
   sodipodi:docname="ghgs_total_gas.svg">
  <defs
     id="defs5402">
    <clipPath
       id="clipPath5982"
       clipPathUnits="userSpaceOnUse">
      <path
         inkscape:connector-curvature="0"
         id="path5984"
         d="m 33.7,19.51 536.82,0 0,335.01 -536.82,0 0,-335.01 z" />
    </clipPath>
  </defs>
  <sodipodi:namedview
     id="base"
     pagecolor="#ffffff"
     bordercolor="#666666"
     borderopacity="1.0"
     inkscape:pageopacity="0.0"
     inkscape:pageshadow="2"
     inkscape:zoom="1.4"
     inkscape:cx="403.06819"
     inkscape:cy="155.32178"
     inkscape:document-units="px"
     inkscape:current-layer="layer2"
     showgrid="false"
     fit-margin-top="0"
     fit-margin-left="0"
     fit-margin-right="0"
     fit-margin-bottom="0"
     inkscape:window-width="1920"
     inkscape:window-height="1027"
     inkscape:window-x="-8"
     inkscape:window-y="-8"
     inkscape:window-maximized="1" />
  <metadata
     id="metadata5405">
    <rdf:RDF>
      <cc:Work
         rdf:about="">
        <dc:format>image/svg+xml</dc:format>
        <dc:type
           rdf:resource="http://purl.org/dc/dcmitype/StillImage" />
        <dc:title></dc:title>
      </cc:Work>
    </rdf:RDF>
  </metadata>
  <g
     inkscape:label="Layer 1"
     inkscape:groupmode="layer"
     id="layer1"
     transform="translate(-29.565048,-196.40059)"
     sodipodi:insensitive="true">
    <path
       d="m 64.982139,615.83184 671.025001,0 0,-418.7625 -671.025001,0 0,418.7625 z"
       style="fill:#ffffff;fill-opacity:1;fill-rule:nonzero;stroke:none"
       id="path5986"
       inkscape:connector-curvature="0" />
    <path
       d="m 64.982139,529.69434 671.025001,0"
       style="fill:none;stroke:#ebebeb;stroke-width:0.66249996;stroke-linecap:butt;stroke-linejoin:round;stroke-miterlimit:10;stroke-dasharray:none;stroke-opacity:1"
       id="path5988"
       inkscape:connector-curvature="0" />
    <path
       d="m 64.982139,395.51934 671.025001,0"
       style="fill:none;stroke:#ebebeb;stroke-width:0.66249996;stroke-linecap:butt;stroke-linejoin:round;stroke-miterlimit:10;stroke-dasharray:none;stroke-opacity:1"
       id="path5990"
       inkscape:connector-curvature="0" />
    <path
       d="m 64.982139,261.33184 671.025001,0"
       style="fill:none;stroke:#ebebeb;stroke-width:0.66249996;stroke-linecap:butt;stroke-linejoin:round;stroke-miterlimit:10;stroke-dasharray:none;stroke-opacity:1"
       id="path5992"
       inkscape:connector-curvature="0" />
    <path
       d="m 160.36964,615.83184 0,-418.7625"
       style="fill:none;stroke:#ebebeb;stroke-width:0.66249996;stroke-linecap:butt;stroke-linejoin:round;stroke-miterlimit:10;stroke-dasharray:none;stroke-opacity:1"
       id="path5994"
       inkscape:connector-curvature="0" />
    <path
       d="m 290.16964,615.83184 0,-418.7625"
       style="fill:none;stroke:#ebebeb;stroke-width:0.66249996;stroke-linecap:butt;stroke-linejoin:round;stroke-miterlimit:10;stroke-dasharray:none;stroke-opacity:1"
       id="path5996"
       inkscape:connector-curvature="0" />
    <path
       d="m 419.95714,615.83184 0,-418.7625"
       style="fill:none;stroke:#ebebeb;stroke-width:0.66249996;stroke-linecap:butt;stroke-linejoin:round;stroke-miterlimit:10;stroke-dasharray:none;stroke-opacity:1"
       id="path5998"
       inkscape:connector-curvature="0" />
    <path
       d="m 549.75714,615.83184 0,-418.7625"
       style="fill:none;stroke:#ebebeb;stroke-width:0.66249996;stroke-linecap:butt;stroke-linejoin:round;stroke-miterlimit:10;stroke-dasharray:none;stroke-opacity:1"
       id="path6000"
       inkscape:connector-curvature="0" />
    <path
       d="m 679.54464,615.83184 0,-418.7625"
       style="fill:none;stroke:#ebebeb;stroke-width:0.66249996;stroke-linecap:butt;stroke-linejoin:round;stroke-miterlimit:10;stroke-dasharray:none;stroke-opacity:1"
       id="path6002"
       inkscape:connector-curvature="0" />
    <path
       d="m 64.982139,596.79434 671.025001,0"
       style="fill:none;stroke:#ebebeb;stroke-width:1.3375001;stroke-linecap:butt;stroke-linejoin:round;stroke-miterlimit:10;stroke-dasharray:none;stroke-opacity:1"
       id="path6004"
       inkscape:connector-curvature="0" />
    <path
       d="m 64.982139,462.60684 671.025001,0"
       style="fill:none;stroke:#ebebeb;stroke-width:1.3375001;stroke-linecap:butt;stroke-linejoin:round;stroke-miterlimit:10;stroke-dasharray:none;stroke-opacity:1"
       id="path6006"
       inkscape:connector-curvature="0" />
    <path
       d="m 64.982139,328.41934 671.025001,0"
       style="fill:none;stroke:#ebebeb;stroke-width:1.3375001;stroke-linecap:butt;stroke-linejoin:round;stroke-miterlimit:10;stroke-dasharray:none;stroke-opacity:1"
       id="path6008"
       inkscape:connector-curvature="0" />
    <path
       d="m 95.482139,615.83184 0,-418.7625"
       style="fill:none;stroke:#ebebeb;stroke-width:1.3375001;stroke-linecap:butt;stroke-linejoin:round;stroke-miterlimit:10;stroke-dasharray:none;stroke-opacity:1"
       id="path6010"
       inkscape:connector-curvature="0" />
    <path
       d="m 225.26964,615.83184 0,-418.7625"
       style="fill:none;stroke:#ebebeb;stroke-width:1.3375001;stroke-linecap:butt;stroke-linejoin:round;stroke-miterlimit:10;stroke-dasharray:none;stroke-opacity:1"
       id="path6012"
       inkscape:connector-curvature="0" />
    <path
       d="m 355.06964,615.83184 0,-418.7625"
       style="fill:none;stroke:#ebebeb;stroke-width:1.3375001;stroke-linecap:butt;stroke-linejoin:round;stroke-miterlimit:10;stroke-dasharray:none;stroke-opacity:1"
       id="path6014"
       inkscape:connector-curvature="0" />
    <path
       d="m 484.85714,615.83184 0,-418.7625"
       style="fill:none;stroke:#ebebeb;stroke-width:1.3375001;stroke-linecap:butt;stroke-linejoin:round;stroke-miterlimit:10;stroke-dasharray:none;stroke-opacity:1"
       id="path6016"
       inkscape:connector-curvature="0" />
    <path
       d="m 614.65714,615.83184 0,-418.7625"
       style="fill:none;stroke:#ebebeb;stroke-width:1.3375001;stroke-linecap:butt;stroke-linejoin:round;stroke-miterlimit:10;stroke-dasharray:none;stroke-opacity:1"
       id="path6018"
       inkscape:connector-curvature="0" />
    <path
       d="m 95.482139,395.84434 12.975001,-0.5875 12.975,-6.275 12.9875,-9.3 12.975,0.65 12.975,2.0375 12.9875,-9.2 12.975,-3.2875 12.9875,-5.625 12.975,-2.8125 12.975,1.7875 12.9875,5.2875 12.975,1.3875 12.975,-1.85 12.9875,-5.2625 12.975,-2.4 12.975,-3.6625 12.9875,-5.4125 12.975,-7.65 12.975,-4.3 12.9875,-0.375 12.975,-0.925 12.975,-0.0875 12.9875,-0.65 12.975,-2.25 12.975,-4.8625 12.9875,-3.0125 12.975,-13.4 12.975,13.825 12.9875,-1.175 12.975,-8.85 12.975,1.05 12.9875,-7.775 12.975,-11.3125 12.975,-10.05 12.9875,-6.2125 12.975,-10.0125 12.9875,-5.125 12.975,-3.5125 12.975,-8.35 12.9875,-10.85 12.975,-7.9 12.975,-10.2875 12.9875,-3.2625 12.975,-5.2625 12.975,-1.6125 12.9875,5.725 12.975,-6.75 0,34.15 -12.975,4.5875 -12.9875,2.2125 -12.975,1.0875 -12.975,3.7875 -12.9875,4.675 -12.975,4.3 -12.975,9.4625 -12.9875,14.6375 -12.975,-2.5875 -12.975,2.1375 -12.9875,9.5875 -12.975,9.025 -12.9875,9.225 -12.975,11.2875 -12.975,10.125 -12.9875,3.825 -12.975,2.3375 -12.975,6.05 -12.9875,1.8125 -12.975,-0.2375 -12.975,1.7375 -12.9875,3.6375 -12.975,5.1875 -12.975,2.3625 -12.9875,0.625 -12.975,-0.2875 -12.975,0.65 -12.9875,0.4125 -12.975,3.65 -12.975,7.2125 -12.9875,4.5 -12.975,2.725 -12.975,1.975 -12.9875,4.35 -12.975,0.825 -12.975,-1.6875 -12.9875,-5.525 -12.975,-2.85 -12.975,3.4625 -12.9875,6.5375 -12.975,3.875 -12.9875,9.6375 -12.975,-1.2625 -12.975,0.3375 -12.9875,9.9875 -12.975,7.1875 -12.975001,1.525 0,-32.5375 z"
       style="fill:#f8766d;fill-opacity:1;fill-rule:nonzero;stroke:#f8766d;stroke-width:1.3375001;stroke-linecap:round;stroke-linejoin:round;stroke-miterlimit:10;stroke-dasharray:none;stroke-opacity:1"
       id="path6020"
       inkscape:connector-curvature="0" />
    <path
       d="m 95.482139,428.38184 12.975001,-1.525 12.975,-7.1875 12.9875,-9.9875 12.975,-0.3375 12.975,1.2625 12.9875,-9.6375 12.975,-3.875 12.9875,-6.5375 12.975,-3.4625 12.975,2.85 12.9875,5.525 12.975,1.6875 12.975,-0.825 12.9875,-4.35 12.975,-1.975 12.975,-2.725 12.9875,-4.5 12.975,-7.2125 12.975,-3.65 12.9875,-0.4125 12.975,-0.65 12.975,0.2875 12.9875,-0.625 12.975,-2.3625 12.975,-5.1875 12.9875,-3.6375 12.975,-1.7375 12.975,0.2375 12.9875,-1.8125 12.975,-6.05 12.975,-2.3375 12.9875,-3.825 12.975,-10.125 12.975,-11.2875 12.9875,-9.225 12.975,-9.025 12.9875,-9.5875 12.975,-2.1375 12.975,2.5875 12.9875,-14.6375 12.975,-9.4625 12.975,-4.3 12.9875,-4.675 12.975,-3.7875 12.975,-1.0875 12.9875,-2.2125 12.975,-4.5875 0,248.8125 -12.975,1.4875 -12.9875,0.9875 -12.975,0.9125 -12.975,1.4 -12.9875,0.575 -12.975,1.35 -12.975,2.15 -12.9875,2.2375 -12.975,-0.025 -12.975,1.1625 -12.9875,1.325 -12.975,2.15 -12.9875,2.15 -12.975,2.575 -12.975,1.75 -12.9875,0.775 -12.975,0.3375 -12.975,0.25 -12.9875,0.4875 -12.975,-0.875 -12.975,-0.55 -12.9875,0.5625 -12.975,0.7875 -12.975,0.475 -12.9875,-0.0625 -12.975,0.25 -12.975,-0.1125 -12.9875,-1.1625 -12.975,1.0125 -12.975,2.1125 -12.9875,0.0125 -12.975,0.425 -12.975,0.2375 -12.9875,0.3 -12.975,-0.0875 -12.975,-0.1625 -12.9875,-3 -12.975,-1.2875 -12.975,-0.15 -12.9875,1.8625 -12.975,0.2 -12.9875,2.9625 -12.975,-0.7 -12.975,0.7625 -12.9875,3.4875 -12.975,1.9375 -12.975001,2.1125 0,-106.075 z"
       style="fill:#a3a500;fill-opacity:1;fill-rule:nonzero;stroke:#a3a500;stroke-width:1.3375001;stroke-linecap:round;stroke-linejoin:round;stroke-miterlimit:10;stroke-dasharray:none;stroke-opacity:1"
       id="path6022"
       inkscape:connector-curvature="0" />
    <path
       d="m 95.482139,534.45684 12.975001,-2.1125 12.975,-1.9375 12.9875,-3.4875 12.975,-0.7625 12.975,0.7 12.9875,-2.9625 12.975,-0.2 12.9875,-1.8625 12.975,0.15 12.975,1.2875 12.9875,3 12.975,0.1625 12.975,0.0875 12.9875,-0.3 12.975,-0.2375 12.975,-0.425 12.9875,-0.0125 12.975,-2.1125 12.975,-1.0125 12.9875,1.1625 12.975,0.1125 12.975,-0.25 12.9875,0.0625 12.975,-0.475 12.975,-0.7875 12.9875,-0.5625 12.975,0.55 12.975,0.875 12.9875,-0.4875 12.975,-0.25 12.975,-0.3375 12.9875,-0.775 12.975,-1.75 12.975,-2.575 12.9875,-2.15 12.975,-2.15 12.9875,-1.325 12.975,-1.1625 12.975,0.025 12.9875,-2.2375 12.975,-2.15 12.975,-1.35 12.9875,-0.575 12.975,-1.4 12.975,-0.9125 12.9875,-0.9875 12.975,-1.4875 0,69.6375 -12.975,0.6375 -12.9875,0.725 -12.975,0.575 -12.975,0.675 -12.9875,0.3875 -12.975,0.3625 -12.975,0.8 -12.9875,0.7125 -12.975,-0.0375 -12.975,0.2125 -12.9875,0.65 -12.975,0.8375 -12.9875,0.775 -12.975,1.1 -12.975,0.5 -12.9875,0.55 -12.975,0.2 -12.975,0.15 -12.9875,0.6 -12.975,0.2 -12.975,0.1625 -12.9875,0.3875 -12.975,0.5875 -12.975,0.3 -12.9875,0.125 -12.975,0.0625 -12.975,0.05 -12.9875,-0.375 -12.975,0.2625 -12.975,0.3 -12.9875,0.2625 -12.975,0.1375 -12.975,-0.025 -12.9875,0.5 -12.975,0.325 -12.975,-0.175 -12.9875,-0.0125 -12.975,0.0375 -12.975,0.3875 -12.9875,0.375 -12.975,0.4 -12.9875,0.3875 -12.975,0.15 -12.975,0.2875 -12.9875,0.5375 -12.975,0.3375 -12.975001,0.275 0,-50.9125 z"
       style="fill:#00bf7d;fill-opacity:1;fill-rule:nonzero;stroke:#00bf7d;stroke-width:1.3375001;stroke-linecap:round;stroke-linejoin:round;stroke-miterlimit:10;stroke-dasharray:none;stroke-opacity:1"
       id="path6024"
       inkscape:connector-curvature="0" />
    <path
       d="m 95.482139,585.36934 12.975001,-0.275 12.975,-0.3375 12.9875,-0.5375 12.975,-0.2875 12.975,-0.15 12.9875,-0.3875 12.975,-0.4 12.9875,-0.375 12.975,-0.3875 12.975,-0.0375 12.9875,0.0125 12.975,0.175 12.975,-0.325 12.9875,-0.5 12.975,0.025 12.975,-0.1375 12.9875,-0.2625 12.975,-0.3 12.975,-0.2625 12.9875,0.375 12.975,-0.05 12.975,-0.0625 12.9875,-0.125 12.975,-0.3 12.975,-0.5875 12.9875,-0.3875 12.975,-0.1625 12.975,-0.2 12.9875,-0.6 12.975,-0.15 12.975,-0.2 12.9875,-0.55 12.975,-0.5 12.975,-1.1 12.9875,-0.775 12.975,-0.8375 12.9875,-0.65 12.975,-0.2125 12.975,0.0375 12.9875,-0.7125 12.975,-0.8 12.975,-0.3625 12.9875,-0.3875 12.975,-0.675 12.975,-0.575 12.9875,-0.725 12.975,-0.6375 0,17.7 -12.975,0.4125 -12.9875,0.425 -12.975,0.3875 -12.975,0.3875 -12.9875,0.375 -12.975,0.375 -12.975,0.3625 -12.9875,0.5125 -12.975,0.1625 -12.975,0.35 -12.9875,0.2375 -12.975,0.5375 -12.9875,0.5375 -12.975,0.6 -12.975,0.35 -12.9875,0.4125 -12.975,0.075 -12.975,0.05 -12.9875,0.5625 -12.975,0.1625 -12.975,0.1875 -12.9875,0.1625 -12.975,0.175 -12.975,0.075 -12.9875,0.15 -12.975,-0.05 -12.975,0.125 -12.9875,0 -12.975,0.1 -12.975,0.1625 -12.9875,0.1 -12.975,0.0375 -12.975,0.025 -12.9875,0.175 -12.975,0.0875 -12.975,-0.075 -12.9875,-0.0125 -12.975,0.025 -12.975,0.1 -12.9875,0.075 -12.975,0.1375 -12.9875,0.1125 -12.975,-0.05 -12.975,0.1 -12.9875,0.125 -12.975,0.05 -12.975001,0.0875 0,-10.5 z"
       style="fill:#00b0f6;fill-opacity:1;fill-rule:nonzero;stroke:#00b0f6;stroke-width:1.3375001;stroke-linecap:round;stroke-linejoin:round;stroke-miterlimit:10;stroke-dasharray:none;stroke-opacity:1"
       id="path6026"
       inkscape:connector-curvature="0" />
    <path
       d="m 95.482139,595.86934 12.975001,-0.0875 12.975,-0.05 12.9875,-0.125 12.975,-0.1 12.975,0.05 12.9875,-0.1125 12.975,-0.1375 12.9875,-0.075 12.975,-0.1 12.975,-0.025 12.9875,0.0125 12.975,0.075 12.975,-0.0875 12.9875,-0.175 12.975,-0.025 12.975,-0.0375 12.9875,-0.1 12.975,-0.1625 12.975,-0.1 12.9875,0 12.975,-0.125 12.975,0.05 12.9875,-0.15 12.975,-0.075 12.975,-0.175 12.9875,-0.1625 12.975,-0.1875 12.975,-0.1625 12.9875,-0.5625 12.975,-0.05 12.975,-0.075 12.9875,-0.4125 12.975,-0.35 12.975,-0.6 12.9875,-0.5375 12.975,-0.5375 12.9875,-0.2375 12.975,-0.35 12.975,-0.1625 12.9875,-0.5125 12.975,-0.3625 12.975,-0.375 12.9875,-0.375 12.975,-0.3875 12.975,-0.3875 12.9875,-0.425 12.975,-0.4125 0,10.3875 -12.975,0 -12.9875,0 -12.975,0 -12.975,0 -12.9875,0 -12.975,0 -12.975,0 -12.9875,0 -12.975,0 -12.975,0 -12.9875,0 -12.975,0 -12.9875,0 -12.975,0 -12.975,0 -12.9875,0 -12.975,0 -12.975,0 -12.9875,0 -12.975,0 -12.975,0 -12.9875,0 -12.975,0 -12.975,0 -12.9875,0 -12.975,0 -12.975,0 -12.9875,0 -12.975,0 -12.975,0 -12.9875,0 -12.975,0 -12.975,0 -12.9875,0 -12.975,0 -12.975,0 -12.9875,0 -12.975,0 -12.975,0 -12.9875,0 -12.975,0 -12.9875,0 -12.975,0 -12.975,0 -12.9875,0 -12.975,0 -12.975001,0 0,-0.925 z"
       style="fill:#e76bf3;fill-opacity:1;fill-rule:nonzero;stroke:#e76bf3;stroke-width:1.3375001;stroke-linecap:round;stroke-linejoin:round;stroke-miterlimit:10;stroke-dasharray:none;stroke-opacity:1"
       id="path6028"
       inkscape:connector-curvature="0" />
    <path
       d="m 95.482139,615.83184 0,-418.7625"
       style="fill:none;stroke:#000000;stroke-width:1.3375001;stroke-linecap:butt;stroke-linejoin:round;stroke-miterlimit:10;stroke-dasharray:5.3375, 5.3375;stroke-dashoffset:0;stroke-opacity:0.30199998"
       id="path6150"
       inkscape:connector-curvature="0" />
    <path
       d="m 225.26964,615.83184 0,-418.7625"
       style="fill:none;stroke:#000000;stroke-width:1.3375001;stroke-linecap:butt;stroke-linejoin:round;stroke-miterlimit:10;stroke-dasharray:5.3375, 5.3375;stroke-dashoffset:0;stroke-opacity:0.30199998"
       id="path6152"
       inkscape:connector-curvature="0" />
    <path
       d="m 355.06964,615.83184 0,-418.7625"
       style="fill:none;stroke:#000000;stroke-width:1.3375001;stroke-linecap:butt;stroke-linejoin:round;stroke-miterlimit:10;stroke-dasharray:5.3375, 5.3375;stroke-dashoffset:0;stroke-opacity:0.30199998"
       id="path6154"
       inkscape:connector-curvature="0" />
    <path
       d="m 484.85714,615.83184 0,-418.7625"
       style="fill:none;stroke:#000000;stroke-width:1.3375001;stroke-linecap:butt;stroke-linejoin:round;stroke-miterlimit:10;stroke-dasharray:5.3375, 5.3375;stroke-dashoffset:0;stroke-opacity:0.30199998"
       id="path6156"
       inkscape:connector-curvature="0" />
    <path
       d="m 614.65714,615.83184 0,-418.7625"
       style="fill:none;stroke:#000000;stroke-width:1.3375001;stroke-linecap:butt;stroke-linejoin:round;stroke-miterlimit:10;stroke-dasharray:5.3375, 5.3375;stroke-dashoffset:0;stroke-opacity:0.30199998"
       id="path6158"
       inkscape:connector-curvature="0" />
    <path
       d="m 705.50714,615.83184 0,-418.7625"
       style="fill:none;stroke:#000000;stroke-width:1.3375001;stroke-linecap:butt;stroke-linejoin:round;stroke-miterlimit:10;stroke-dasharray:5.3375, 5.3375;stroke-dashoffset:0;stroke-opacity:0.30199998"
       id="path6160"
       inkscape:connector-curvature="0" />
    <path
       d="m 64.982139,615.83184 671.025001,0 0,-418.7625 -671.025001,0 0,418.7625 z"
       style="fill:none;stroke:#333333;stroke-width:1.3375001;stroke-linecap:round;stroke-linejoin:round;stroke-miterlimit:10;stroke-dasharray:none;stroke-opacity:1"
       id="path6162"
       inkscape:connector-curvature="0" />
    <path
       inkscape:connector-curvature="0"
       id="path6212"
       style="fill:none;stroke:#333333;stroke-width:1.3375001;stroke-linecap:butt;stroke-linejoin:round;stroke-miterlimit:10;stroke-dasharray:none;stroke-opacity:1"
       d="m 61.557139,596.79434 3.425,0" />
    <path
       inkscape:connector-curvature="0"
       id="path6214"
       style="fill:none;stroke:#333333;stroke-width:1.3375001;stroke-linecap:butt;stroke-linejoin:round;stroke-miterlimit:10;stroke-dasharray:none;stroke-opacity:1"
       d="m 61.557139,462.60684 3.425,0" />
    <path
       inkscape:connector-curvature="0"
       id="path6216"
       style="fill:none;stroke:#333333;stroke-width:1.3375001;stroke-linecap:butt;stroke-linejoin:round;stroke-miterlimit:10;stroke-dasharray:none;stroke-opacity:1"
       d="m 61.557139,328.41934 3.425,0" />
    <path
       inkscape:connector-curvature="0"
       id="path6238"
       style="fill:none;stroke:#333333;stroke-width:1.3375001;stroke-linecap:butt;stroke-linejoin:round;stroke-miterlimit:10;stroke-dasharray:none;stroke-opacity:1"
       d="m 95.482139,619.25684 0,-3.425" />
    <path
       inkscape:connector-curvature="0"
       id="path6240"
       style="fill:none;stroke:#333333;stroke-width:1.3375001;stroke-linecap:butt;stroke-linejoin:round;stroke-miterlimit:10;stroke-dasharray:none;stroke-opacity:1"
       d="m 225.26964,619.25684 0,-3.425" />
    <path
       inkscape:connector-curvature="0"
       id="path6242"
       style="fill:none;stroke:#333333;stroke-width:1.3375001;stroke-linecap:butt;stroke-linejoin:round;stroke-miterlimit:10;stroke-dasharray:none;stroke-opacity:1"
       d="m 355.06964,619.25684 0,-3.425" />
    <path
       inkscape:connector-curvature="0"
       id="path6244"
       style="fill:none;stroke:#333333;stroke-width:1.3375001;stroke-linecap:butt;stroke-linejoin:round;stroke-miterlimit:10;stroke-dasharray:none;stroke-opacity:1"
       d="m 484.85714,619.25684 0,-3.425" />
    <path
       inkscape:connector-curvature="0"
       id="path6246"
       style="fill:none;stroke:#333333;stroke-width:1.3375001;stroke-linecap:butt;stroke-linejoin:round;stroke-miterlimit:10;stroke-dasharray:none;stroke-opacity:1"
       d="m 614.65714,619.25684 0,-3.425" />
    <path
       inkscape:connector-curvature="0"
       id="path6316"
       style="fill:#ffffff;fill-opacity:1;fill-rule:nonzero;stroke:none"
       d="m 106.56964,248.41934 21.6,0 0,-21.6 -21.6,0 0,21.6 z" />
    <path
       inkscape:connector-curvature="0"
       id="path6322"
       style="fill:#f8766d;fill-opacity:1;fill-rule:nonzero;stroke:#f8766d;stroke-width:1.3375001;stroke-linecap:round;stroke-linejoin:miter;stroke-miterlimit:10;stroke-dasharray:none;stroke-opacity:1"
       d="m 107.45714,247.53184 19.825,0 0,-19.825 -19.825,0 0,19.825 z" />
    <path
       inkscape:connector-curvature="0"
       id="path6336"
       style="fill:#ffffff;fill-opacity:1;fill-rule:nonzero;stroke:none"
       d="m 106.56964,270.01934 21.6,0 0,-21.6 -21.6,0 0,21.6 z" />
    <path
       inkscape:connector-curvature="0"
       id="path6342"
       style="fill:#a3a500;fill-opacity:1;fill-rule:nonzero;stroke:#a3a500;stroke-width:1.3375001;stroke-linecap:round;stroke-linejoin:miter;stroke-miterlimit:10;stroke-dasharray:none;stroke-opacity:1"
       d="m 107.45714,269.13184 19.825,0 0,-19.825 -19.825,0 0,19.825 z" />
    <path
       inkscape:connector-curvature="0"
       id="path6356"
       style="fill:#ffffff;fill-opacity:1;fill-rule:nonzero;stroke:none"
       d="m 106.56964,291.61934 21.6,0 0,-21.6 -21.6,0 0,21.6 z" />
    <path
       inkscape:connector-curvature="0"
       id="path6362"
       style="fill:#00bf7d;fill-opacity:1;fill-rule:nonzero;stroke:#00bf7d;stroke-width:1.3375001;stroke-linecap:round;stroke-linejoin:miter;stroke-miterlimit:10;stroke-dasharray:none;stroke-opacity:1"
       d="m 107.45714,290.73184 19.825,0 0,-19.825 -19.825,0 0,19.825 z" />
    <path
       inkscape:connector-curvature="0"
       id="path6376"
       style="fill:#ffffff;fill-opacity:1;fill-rule:nonzero;stroke:none"
       d="m 106.56964,313.21934 21.6,0 0,-21.6 -21.6,0 0,21.6 z" />
    <path
       inkscape:connector-curvature="0"
       id="path6382"
       style="fill:#00b0f6;fill-opacity:1;fill-rule:nonzero;stroke:#00b0f6;stroke-width:1.3375001;stroke-linecap:round;stroke-linejoin:miter;stroke-miterlimit:10;stroke-dasharray:none;stroke-opacity:1"
       d="m 107.45714,312.33184 19.825,0 0,-19.825 -19.825,0 0,19.825 z" />
    <path
       inkscape:connector-curvature="0"
       id="path6396"
       style="fill:#ffffff;fill-opacity:1;fill-rule:nonzero;stroke:none"
       d="m 106.56964,334.81934 21.6,0 0,-21.6 -21.6,0 0,21.6 z" />
    <path
       inkscape:connector-curvature="0"
       id="path6402"
       style="fill:#e76bf3;fill-opacity:1;fill-rule:nonzero;stroke:#e76bf3;stroke-width:1.3375001;stroke-linecap:round;stroke-linejoin:miter;stroke-miterlimit:10;stroke-dasharray:none;stroke-opacity:1"
       d="m 107.45714,333.93184 19.825,0 0,-19.825 -19.825,0 0,19.825 z" />
  </g>
  <g
     inkscape:groupmode="layer"
     id="layer2"
     inkscape:label="text">
    <text
       style="font-variant:normal;font-weight:normal;font-size:13.75px;font-family:Helvetica;-inkscape-font-specification:Helvetica;writing-mode:lr-tb;fill:#2c2c2c;fill-opacity:1;fill-rule:nonzero;stroke:none;"
       id="text6030"
       x="52.154594"
       y="284.25089">
      <tspan
         x="52.154594 59.799591 67.444588"
         y="284.25089"
         sodipodi:role="line"
         id="tspan6032">53%</tspan>
    </text>
    <text
       style="font-variant:normal;font-weight:normal;font-size:13.75px;font-family:Helvetica;-inkscape-font-specification:Helvetica;writing-mode:lr-tb;fill:#2c2c2c;fill-opacity:1;fill-rule:nonzero;stroke:none;"
       id="text6034"
       x="181.95459"
       y="268.26517">
      <tspan
         x="181.95459 189.59959 197.2446"
         y="268.26517"
         sodipodi:role="line"
         id="tspan6036">57%</tspan>
    </text>
    <text
       style="font-variant:normal;font-weight:normal;font-size:13.75px;font-family:Helvetica;-inkscape-font-specification:Helvetica;writing-mode:lr-tb;fill:#2c2c2c;fill-opacity:1;fill-rule:nonzero;stroke:none;"
       id="text6038"
       x="311.7421"
       y="258.69553">
      <tspan
         x="311.7421 319.38712 327.0321"
         y="258.69553"
         sodipodi:role="line"
         id="tspan6040">59%</tspan>
    </text>
    <text
       style="font-variant:normal;font-weight:normal;font-size:13.75px;font-family:Helvetica;-inkscape-font-specification:Helvetica;writing-mode:lr-tb;fill:#2c2c2c;fill-opacity:1;fill-rule:nonzero;stroke:none;"
       id="text6042"
       x="441.54211"
       y="245.1241">
      <tspan
         x="441.54211 449.1871 456.83209"
         y="245.1241"
         sodipodi:role="line"
         id="tspan6044">62%</tspan>
    </text>
    <text
       style="font-variant:normal;font-weight:normal;font-size:13.75px;font-family:Helvetica;-inkscape-font-specification:Helvetica;writing-mode:lr-tb;fill:#2c2c2c;fill-opacity:1;fill-rule:nonzero;stroke:none;"
       id="text6046"
       x="571.32959"
       y="197.41341">
      <tspan
         x="571.32959 578.97455 586.61957"
         y="197.41341"
         sodipodi:role="line"
         id="tspan6048">65%</tspan>
    </text>
    <text
       style="font-variant:normal;font-weight:normal;font-size:13.75px;font-family:Helvetica;-inkscape-font-specification:Helvetica;writing-mode:lr-tb;fill:#2c2c2c;fill-opacity:1;fill-rule:nonzero;stroke:none;"
       id="text6050"
       x="662.17957"
       y="183.28661">
      <tspan
         x="662.17957 669.82458 677.4696"
         y="183.28661"
         sodipodi:role="line"
         id="tspan6052">65%</tspan>
    </text>
    <text
       style="font-variant:normal;font-weight:normal;font-size:13.75px;font-family:Helvetica;-inkscape-font-specification:Helvetica;writing-mode:lr-tb;fill:#2c2c2c;fill-opacity:1;fill-rule:nonzero;stroke:none;"
       id="text6054"
       x="52.154594"
       y="367.71875">
      <tspan
         x="52.154594 59.799591 67.444588"
         y="367.71875"
         sodipodi:role="line"
         id="tspan6056">25%</tspan>
    </text>
    <text
       style="font-variant:normal;font-weight:normal;font-size:13.75px;font-family:Helvetica;-inkscape-font-specification:Helvetica;writing-mode:lr-tb;fill:#2c2c2c;fill-opacity:1;fill-rule:nonzero;stroke:none;"
       id="text6058"
       x="181.95459"
       y="361.59552">
      <tspan
         x="181.95459 189.59959 197.2446"
         y="361.59552"
         sodipodi:role="line"
         id="tspan6060">25%</tspan>
    </text>
    <text
       style="font-variant:normal;font-weight:normal;font-size:13.75px;font-family:Helvetica;-inkscape-font-specification:Helvetica;writing-mode:lr-tb;fill:#2c2c2c;fill-opacity:1;fill-rule:nonzero;stroke:none;"
       id="text6062"
       x="311.7421"
       y="363.32947">
      <tspan
         x="311.7421 319.38712 327.0321"
         y="363.32947"
         sodipodi:role="line"
         id="tspan6064">22%</tspan>
    </text>
    <text
       style="font-variant:normal;font-weight:normal;font-size:13.75px;font-family:Helvetica;-inkscape-font-specification:Helvetica;writing-mode:lr-tb;fill:#2c2c2c;fill-opacity:1;fill-rule:nonzero;stroke:none;"
       id="text6066"
       x="441.54211"
       y="359.63303">
      <tspan
         x="441.54211 449.1871 456.83209"
         y="359.63303"
         sodipodi:role="line"
         id="tspan6068">20%</tspan>
    </text>
    <text
       style="font-variant:normal;font-weight:normal;font-size:13.75px;font-family:Helvetica;-inkscape-font-specification:Helvetica;writing-mode:lr-tb;fill:#2c2c2c;fill-opacity:1;fill-rule:nonzero;stroke:none"
       id="text6070"
       x="571.32959"
       y="348.97409">
      <tspan
         x="571.32959 578.97455 586.61957"
         y="348.97409"
         sodipodi:role="line"
         id="tspan6072">18%</tspan>
    </text>
    <text
       style="font-variant:normal;font-weight:normal;font-size:13.75px;font-family:Helvetica;-inkscape-font-specification:Helvetica;writing-mode:lr-tb;fill:#2c2c2c;fill-opacity:1;fill-rule:nonzero;stroke:none;"
       id="text6074"
       x="662.17957"
       y="344.56339">
      <tspan
         x="662.17957 669.82458 677.4696"
         y="344.56339"
         sodipodi:role="line"
         id="tspan6076">18%</tspan>
    </text>
    <text
       style="font-variant:normal;font-weight:normal;font-size:13.75px;font-family:Helvetica;-inkscape-font-specification:Helvetica;writing-mode:lr-tb;fill:#2c2c2c;fill-opacity:1;fill-rule:nonzero;stroke:none;"
       id="text6078"
       x="55.979591"
       y="397.46875">
      <tspan
         x="55.979591 63.624588"
         y="397.46875"
         sodipodi:role="line"
         id="tspan6080">5%</tspan>
    </text>
    <text
       style="font-variant:normal;font-weight:normal;font-size:13.75px;font-family:Helvetica;-inkscape-font-specification:Helvetica;writing-mode:lr-tb;fill:#2c2c2c;fill-opacity:1;fill-rule:nonzero;stroke:none;"
       id="text6082"
       x="185.76709"
       y="394.63303">
      <tspan
         x="185.76709 193.41209"
         y="394.63303"
         sodipodi:role="line"
         id="tspan6084">6%</tspan>
    </text>
    <text
       style="font-variant:normal;font-weight:normal;font-size:13.75px;font-family:Helvetica;-inkscape-font-specification:Helvetica;writing-mode:lr-tb;fill:#2c2c2c;fill-opacity:1;fill-rule:nonzero;stroke:none;"
       id="text6086"
       x="315.56711"
       y="394.50803">
      <tspan
         x="315.56711 323.2121"
         y="394.50803"
         sodipodi:role="line"
         id="tspan6088">5%</tspan>
    </text>
    <text
       style="font-variant:normal;font-weight:normal;font-size:13.75px;font-family:Helvetica;-inkscape-font-specification:Helvetica;writing-mode:lr-tb;fill:#2c2c2c;fill-opacity:1;fill-rule:nonzero;stroke:none;"
       id="text6090"
       x="445.35461"
       y="392.95447">
      <tspan
         x="445.35461 452.9996"
         y="392.95447"
         sodipodi:role="line"
         id="tspan6092">5%</tspan>
    </text>
    <text
       style="font-variant:normal;font-weight:normal;font-size:13.75px;font-family:Helvetica;-inkscape-font-specification:Helvetica;writing-mode:lr-tb;fill:#2c2c2c;fill-opacity:1;fill-rule:nonzero;stroke:none;"
       id="text6094"
       x="575.1546"
       y="388.44019">
      <tspan
         x="575.1546 582.79956"
         y="388.44019"
         sodipodi:role="line"
         id="tspan6096">5%</tspan>
    </text>
    <text
       style="font-variant:normal;font-weight:normal;font-size:13.75px;font-family:Helvetica;-inkscape-font-specification:Helvetica;writing-mode:lr-tb;fill:#2c2c2c;fill-opacity:1;fill-rule:nonzero;stroke:none;"
       id="text6098"
       x="666.00458"
       y="384.45981">
      <tspan
         x="666.00458 673.6496"
         y="384.45981"
         sodipodi:role="line"
         id="tspan6100">5%</tspan>
    </text>
    <text
       style="font-variant:normal;font-weight:normal;font-size:13.75px;font-family:Helvetica;-inkscape-font-specification:Helvetica;writing-mode:lr-tb;fill:#2c2c2c;fill-opacity:1;fill-rule:nonzero;stroke:none;"
       id="text6122"
       x="666.00458"
       y="400.60446">
      <tspan
         x="666.00458 673.6496"
         y="400.60446"
         sodipodi:role="line"
         id="tspan6124">3%</tspan>
    </text>
    <text
       style="font-variant:normal;font-weight:normal;font-size:13.75px;font-family:Helvetica;-inkscape-font-specification:Helvetica;writing-mode:lr-tb;fill:#2c2c2c;fill-opacity:1;fill-rule:nonzero;stroke:none;"
       id="text6126"
       x="52.154594"
       y="219.02234">
      <tspan
         x="52.154594 59.799591 67.444588"
         y="219.02234"
         sodipodi:role="line"
         id="tspan6128">16%</tspan>
    </text>
    <text
       style="font-variant:normal;font-weight:normal;font-size:13.75px;font-family:Helvetica;-inkscape-font-specification:Helvetica;writing-mode:lr-tb;fill:#2c2c2c;fill-opacity:1;fill-rule:nonzero;stroke:none;"
       id="text6130"
       x="181.95459"
       y="184.48662">
      <tspan
         x="181.95459 189.59959 197.2446"
         y="184.48662"
         sodipodi:role="line"
         id="tspan6132">11%</tspan>
    </text>
    <text
       style="font-variant:normal;font-weight:normal;font-size:13.75px;font-family:Helvetica;-inkscape-font-specification:Helvetica;writing-mode:lr-tb;fill:#2c2c2c;fill-opacity:1;fill-rule:nonzero;stroke:none;"
       id="text6134"
       x="311.7421"
       y="162.93304">
      <tspan
         x="311.7421 319.38712 327.0321"
         y="162.93304"
         sodipodi:role="line"
         id="tspan6136">13%</tspan>
    </text>
    <text
       style="font-variant:normal;font-weight:normal;font-size:13.75px;font-family:Helvetica;-inkscape-font-specification:Helvetica;writing-mode:lr-tb;fill:#2c2c2c;fill-opacity:1;fill-rule:nonzero;stroke:none;"
       id="text6138"
       x="441.54211"
       y="144.22411">
      <tspan
         x="441.54211 449.1871 456.83209"
         y="144.22411"
         sodipodi:role="line"
         id="tspan6140">12%</tspan>
    </text>
    <text
       style="font-variant:normal;font-weight:normal;font-size:13.75px;font-family:Helvetica;-inkscape-font-specification:Helvetica;writing-mode:lr-tb;fill:#2c2c2c;fill-opacity:1;fill-rule:nonzero;stroke:none;"
       id="text6142"
       x="571.32959"
       y="70.708054">
      <tspan
         x="571.32959 578.97455 586.61957"
         y="70.708054"
         sodipodi:role="line"
         id="tspan6144">10%</tspan>
    </text>
    <text
       style="font-variant:normal;font-weight:normal;font-size:13.75px;font-family:Helvetica;-inkscape-font-specification:Helvetica;writing-mode:lr-tb;fill:#2c2c2c;fill-opacity:1;fill-rule:nonzero;stroke:none;"
       id="text6146"
       x="666.00458"
       y="42.158039">
      <tspan
         x="666.00458 673.6496"
         y="42.158039"
         sodipodi:role="line"
         id="tspan6148">9%</tspan>
    </text>
    <text
       transform="translate(-29.565048,-196.40059)"
       id="text6196"
       style="font-variant:normal;font-weight:normal;font-size:11.25px;font-family:Helvetica;-inkscape-font-specification:Helvetica;writing-mode:lr-tb;fill:#4d4d4d;fill-opacity:1;fill-rule:nonzero;stroke:none"
       x="52.55714"
       y="600.83185">
      <tspan
         id="tspan6198"
         y="600.83185"
         x="52.55714">0</tspan>
    </text>
    <text
       transform="translate(-29.565048,-196.40059)"
       id="text6200"
       style="font-variant:normal;font-weight:normal;font-size:11.25px;font-family:Helvetica;-inkscape-font-specification:Helvetica;writing-mode:lr-tb;fill:#4d4d4d;fill-opacity:1;fill-rule:nonzero;stroke:none"
       x="46.30714"
       y="466.64435">
      <tspan
         id="tspan6202"
         sodipodi:role="line"
         y="466.64435"
         x="46.30714 52.562138">20</tspan>
    </text>
    <text
       transform="translate(-29.565048,-196.40059)"
       id="text6204"
       style="font-variant:normal;font-weight:normal;font-size:11.25px;font-family:Helvetica;-inkscape-font-specification:Helvetica;writing-mode:lr-tb;fill:#4d4d4d;fill-opacity:1;fill-rule:nonzero;stroke:none"
       x="46.30714"
       y="332.45685">
      <tspan
         id="tspan6206"
         sodipodi:role="line"
         y="332.45685"
         x="46.30714 52.562138">40</tspan>
    </text>
    <text
       transform="translate(-29.565048,-196.40059)"
       id="text6252"
       style="font-variant:normal;font-weight:normal;font-size:11.25px;font-family:Helvetica;-inkscape-font-specification:Helvetica;writing-mode:lr-tb;fill:#4d4d4d;fill-opacity:1;fill-rule:nonzero;stroke:none"
       x="82.969643"
       y="630.06934">
      <tspan
         id="tspan6254"
         sodipodi:role="line"
         y="630.06934"
         x="82.969643 89.22464 95.479637 101.73464">1970</tspan>
    </text>
    <text
       transform="translate(-29.565048,-196.40059)"
       id="text6256"
       style="font-variant:normal;font-weight:normal;font-size:11.25px;font-family:Helvetica;-inkscape-font-specification:Helvetica;writing-mode:lr-tb;fill:#4d4d4d;fill-opacity:1;fill-rule:nonzero;stroke:none"
       x="212.75714"
       y="630.06934">
      <tspan
         id="tspan6258"
         sodipodi:role="line"
         y="630.06934"
         x="212.75714 219.01215 225.26714 231.52214">1980</tspan>
    </text>
    <text
       transform="translate(-29.565048,-196.40059)"
       id="text6260"
       style="font-variant:normal;font-weight:normal;font-size:11.25px;font-family:Helvetica;-inkscape-font-specification:Helvetica;writing-mode:lr-tb;fill:#4d4d4d;fill-opacity:1;fill-rule:nonzero;stroke:none"
       x="342.55713"
       y="630.06934">
      <tspan
         id="tspan6262"
         sodipodi:role="line"
         y="630.06934"
         x="342.55713 348.81213 355.06714 361.32214">1990</tspan>
    </text>
    <text
       transform="translate(-29.565048,-196.40059)"
       id="text6264"
       style="font-variant:normal;font-weight:normal;font-size:11.25px;font-family:Helvetica;-inkscape-font-specification:Helvetica;writing-mode:lr-tb;fill:#4d4d4d;fill-opacity:1;fill-rule:nonzero;stroke:none"
       x="472.34464"
       y="630.06934">
      <tspan
         id="tspan6266"
         sodipodi:role="line"
         y="630.06934"
         x="472.34464 478.59964 484.85464 491.10965">2000</tspan>
    </text>
    <text
       transform="translate(-29.565048,-196.40059)"
       id="text6268"
       style="font-variant:normal;font-weight:normal;font-size:11.25px;font-family:Helvetica;-inkscape-font-specification:Helvetica;writing-mode:lr-tb;fill:#4d4d4d;fill-opacity:1;fill-rule:nonzero;stroke:none"
       x="602.14465"
       y="630.06934">
      <tspan
         id="tspan6270"
         sodipodi:role="line"
         y="630.06934"
         x="602.14465 608.39966 614.65466 620.90967">2010</tspan>
    </text>
    <text
       id="text6288"
       style="font-variant:normal;font-weight:normal;font-size:13.75px;font-family:Helvetica;-inkscape-font-specification:Helvetica;writing-mode:lr-tb;fill:#2c2c2c;fill-opacity:1;fill-rule:nonzero;stroke:none;"
       transform="matrix(0,-1,1,0,-29.565048,-196.40059)"
       x="-498.50684"
       y="39.582138">
      <tspan
         id="tspan6290"
         sodipodi:role="line"
         y="39.582138"
         x="-498.50684 -487.80933 -477.88184 -467.18433 -463.36185 -454.19058 -442.73685 -439.68436 -432.80936 -425.93436 -422.88184 -415.23685 -407.59183 -400.71683 -396.89435 -392.31558 -381.6181 -377.79559 -367.8681 -357.17059 -349.5256 -341.88058 -334.2356 -330.41309 -323.53809 -318.95935">GHG Emissions (GtCO2eq/yr)</tspan>
    </text>
    <text
       transform="translate(-29.565048,-196.40059)"
       id="text6328"
       style="font-variant:normal;font-weight:normal;font-size:13.75px;font-family:Helvetica;-inkscape-font-specification:Helvetica;writing-mode:lr-tb;fill:#f8766d;fill-opacity:1;fill-rule:nonzero;stroke:none"
       x="113.54464"
       y="242.55684">
      <tspan
         id="tspan6330"
         y="242.55684"
         x="113.54464">a</tspan>
    </text>
    <text
       transform="translate(-29.565048,-196.40059)"
       id="text6348"
       style="font-variant:normal;font-weight:normal;font-size:13.75px;font-family:Helvetica;-inkscape-font-specification:Helvetica;writing-mode:lr-tb;fill:#a3a500;fill-opacity:1;fill-rule:nonzero;stroke:none"
       x="113.54464"
       y="264.15683">
      <tspan
         id="tspan6350"
         y="264.15683"
         x="113.54464">a</tspan>
    </text>
    <text
       transform="translate(-29.565048,-196.40059)"
       id="text6368"
       style="font-variant:normal;font-weight:normal;font-size:13.75px;font-family:Helvetica;-inkscape-font-specification:Helvetica;writing-mode:lr-tb;fill:#00bf7d;fill-opacity:1;fill-rule:nonzero;stroke:none"
       x="113.54464"
       y="285.75684">
      <tspan
         id="tspan6370"
         y="285.75684"
         x="113.54464">a</tspan>
    </text>
    <text
       transform="translate(-29.565048,-196.40059)"
       id="text6388"
       style="font-variant:normal;font-weight:normal;font-size:13.75px;font-family:Helvetica;-inkscape-font-specification:Helvetica;writing-mode:lr-tb;fill:#00b0f6;fill-opacity:1;fill-rule:nonzero;stroke:none"
       x="113.54464"
       y="307.35684">
      <tspan
         id="tspan6390"
         y="307.35684"
         x="113.54464">a</tspan>
    </text>
    <text
       transform="translate(-29.565048,-196.40059)"
       id="text6408"
       style="font-variant:normal;font-weight:normal;font-size:13.75px;font-family:Helvetica;-inkscape-font-specification:Helvetica;writing-mode:lr-tb;fill:#e76bf3;fill-opacity:1;fill-rule:nonzero;stroke:none"
       x="113.54464"
       y="328.95685">
      <tspan
         id="tspan6410"
         y="328.95685"
         x="113.54464">a</tspan>
    </text>
    <text
       transform="translate(-29.565048,-196.40059)"
       id="text6420"
       style="font-variant:normal;font-weight:normal;font-size:11.25px;font-family:Helvetica;-inkscape-font-specification:Helvetica;writing-mode:lr-tb;fill:#2c2c2c;fill-opacity:1;fill-rule:nonzero;stroke:none;"
       x="128.16965"
       y="241.65685">
      <tspan
         id="tspan6422"
         sodipodi:role="line"
         y="241.65685"
         x="128.16965 136.29214 145.04465 151.29964 154.42714 161.30089 170.05339 176.3084">CO2 FOLU</tspan>
    </text>
    <text
       transform="translate(-29.565048,-196.40059)"
       id="text6434"
       style="font-variant:normal;font-weight:normal;font-size:11.25px;font-family:Helvetica;-inkscape-font-specification:Helvetica;writing-mode:lr-tb;fill:#2c2c2c;fill-opacity:1;fill-rule:nonzero;stroke:none;"
       x="128.16965"
       y="263.25684">
      <tspan
         id="tspan6436"
         sodipodi:role="line"
         y="263.25684"
         x="128.16965 136.29214 145.04465 151.29964 154.42714 161.30089 168.17464">CO2 FFI</tspan>
    </text>
    <text
       transform="translate(-29.565048,-196.40059)"
       id="text6448"
       style="font-variant:normal;font-weight:normal;font-size:11.25px;font-family:Helvetica;-inkscape-font-specification:Helvetica;writing-mode:lr-tb;fill:#2c2c2c;fill-opacity:1;fill-rule:nonzero;stroke:none;"
       x="128.16965"
       y="284.85684">
      <tspan
         id="tspan6450"
         sodipodi:role="line"
         y="284.85684"
         x="128.16965 136.29214 144.41464">CH4</tspan>
    </text>
    <text
       transform="translate(-29.565048,-196.40059)"
       id="text6462"
       style="font-variant:normal;font-weight:normal;font-size:11.25px;font-family:Helvetica;-inkscape-font-specification:Helvetica;writing-mode:lr-tb;fill:#2c2c2c;fill-opacity:1;fill-rule:nonzero;stroke:none;"
       x="128.16965"
       y="306.45685">
      <tspan
         id="tspan6464"
         sodipodi:role="line"
         y="306.45685"
         x="128.16965 136.29214 142.54713">N2O</tspan>
    </text>
    <text
       transform="translate(-29.565048,-196.40059)"
       id="text6476"
       style="font-variant:normal;font-weight:normal;font-size:11.25px;font-family:Helvetica;-inkscape-font-specification:Helvetica;writing-mode:lr-tb;fill:#2c2c2c;fill-opacity:1;fill-rule:nonzero;stroke:none;"
       x="128.16965"
       y="328.05685">
      <tspan
         id="tspan6478"
         sodipodi:role="line"
         y="328.05685"
         x="128.16965 135.0434 141.29839 147.55339">Fgas</tspan>
    </text>
  </g>
</svg>
